#N canvas 610 103 1096 961 12;
#X obj 116 490 phasor~ 440;
#X obj 121 532 >~ 0.5;
#X obj 282 449 vline~;
#X obj 282 474 *~;
#X obj 104 618 +~;
#X obj 121 557 -~ 0.5;
#X obj 276 551 mtof~;
#X obj 468 506 vline~;
#X obj 468 531 *~;
#X obj 468 556 *~;
#X obj 152 727 +~;
#X obj 246 701 osc~;
#X obj 152 752 *~;
#X obj 152 802 clip~ -1 1;
#X obj 167 631 *~ 1.5;
#X obj 282 509 *~;
#X obj 115 676 vcf~ 0.25;
#X obj 152 777 *~ 1.2;
#X msg 451 460 0.945742 1 \, 1 4 1 \, 0.945742 30 5 \, 0 460 35;
#X obj 242 595 pdkm/dkpink~ 1.6;
#X obj 299 384 pack f f;
#X obj 687 115 f \$2;
#X obj 706 210 clip 0 1;
#X obj 706 235 * 0.3;
#X obj 699 264 + 2.5;
#X obj 687 140 moses 1e-14;
#X msg 687 165 0.333333;
#X obj 430 167 moses 1e-07;
#X obj 434 231 clip 0 1;
#X obj 434 256 + 2;
#X msg 430 192 0.8;
#X obj 436 134 f \$1;
#X obj 351 273 f;
#X msg 268 420 \$1 1 \, \$2 5 1 \, 1.5 500 6;
#X obj 246 66 inlet;
#X obj 603 77 loadbang;
#X obj 380 63 inlet;
#X obj 753 65 inlet;
#X text 401 88 brightness(0-1);
#X text 786 90 thud(0-1);
#X obj 348 322 t f b;
#X obj 157 888 outlet~;
#X text 19 10 dkbd3~: bass drum synth;
#X text 50 193 ARGS:;
#X text 45 221 brightness(0-1 \, 0.8*) \, thud(0-1 \, 0.3*);
#X text 41 280 INLETS:;
#X text 42 303 trigger/brightness/thud;
#X text 48 342 OUTLETS:;
#X text 49 355 signal;
#X text 888 34 derek kwan 2017;
#X text 888 53 pdksynth;
#X text 885 74 gpl v 3;
#X text 829 174 requires zexy \, dkpink~ from pdkm;
#X obj 152 826 *~ 1, f 43;
#X text 153 110 trig/vol;
#X obj 246 90 route bang float;
#X obj 314 154 t b f;
#X msg 251 149 1;
#X connect 0 0 1 0;
#X connect 1 0 5 0;
#X connect 2 0 3 0;
#X connect 2 0 3 1;
#X connect 3 0 15 0;
#X connect 3 0 15 1;
#X connect 4 0 16 0;
#X connect 5 0 4 0;
#X connect 6 0 0 0;
#X connect 6 0 11 0;
#X connect 6 0 14 0;
#X connect 7 0 8 0;
#X connect 7 0 8 1;
#X connect 8 0 9 0;
#X connect 8 0 9 1;
#X connect 9 0 12 1;
#X connect 10 0 12 0;
#X connect 11 0 10 1;
#X connect 12 0 17 0;
#X connect 13 0 53 0;
#X connect 14 0 16 1;
#X connect 15 0 6 0;
#X connect 16 1 10 0;
#X connect 17 0 13 0;
#X connect 18 0 7 0;
#X connect 19 0 4 1;
#X connect 20 0 33 0;
#X connect 21 0 25 0;
#X connect 22 0 23 0;
#X connect 23 0 24 0;
#X connect 24 0 20 1;
#X connect 25 0 26 0;
#X connect 25 1 22 0;
#X connect 26 0 22 0;
#X connect 27 0 30 0;
#X connect 27 1 28 0;
#X connect 28 0 29 0;
#X connect 29 0 32 1;
#X connect 30 0 28 0;
#X connect 31 0 27 0;
#X connect 32 0 40 0;
#X connect 33 0 2 0;
#X connect 34 0 55 0;
#X connect 35 0 21 0;
#X connect 35 0 31 0;
#X connect 36 0 28 0;
#X connect 37 0 22 0;
#X connect 40 0 20 0;
#X connect 40 1 18 0;
#X connect 53 0 41 0;
#X connect 55 0 57 0;
#X connect 55 1 56 0;
#X connect 56 0 32 0;
#X connect 56 1 53 1;
#X connect 57 0 56 0;
