#N canvas 485 378 1125 756 12;
#X obj 97 355 sig~ 70;
#X obj 54 435 vcf~ 10;
#X text 22 10 DKBD2~ 808-ish bass drum synth;
#X obj 29 285 *~ 5;
#X text 13 35 arg1 - center freq (70 Hz default);
#X text 16 60 arg2 - q value (default 10);
#X obj 203 246 f \$1;
#X obj 203 301 moses 1e-14;
#X msg 203 323 70;
#X obj 314 224 f \$2;
#X obj 314 246 moses 1e-26;
#X msg 314 268 10;
#X obj 63 576 outlet~;
#X text 416 12 Derek Kwan 2016;
#X text 470 34 gpl v 2;
#X obj 315 77 loadbang;
#X obj 20 236 pdkvabs/dkvanssimp~ 64;
#X obj 199 101 inlet;
#X text 230 209 freq;
#X text 379 210 q;
#X obj 24 123 inlet;
#X text 82 119 trig/vol;
#X obj 24 147 route bang float;
#X obj 60 499 *~ 1;
#X obj 78 187 t b f;
#X msg 37 190 1;
#X obj 328 122 route freq q width;
#X text 9 76 arg3 - width (default 64);
#X obj 460 213 f \$3;
#X obj 460 237 moses 1e-20;
#X msg 460 261 64;
#X obj 460 285 f;
#X connect 0 0 1 1;
#X connect 1 0 23 0;
#X connect 3 0 1 0;
#X connect 6 0 7 0;
#X connect 7 0 8 0;
#X connect 7 1 0 0;
#X connect 8 0 0 0;
#X connect 9 0 10 0;
#X connect 10 0 11 0;
#X connect 10 1 1 2;
#X connect 11 0 1 2;
#X connect 15 0 6 0;
#X connect 15 0 9 0;
#X connect 15 0 28 0;
#X connect 16 0 3 0;
#X connect 17 0 26 0;
#X connect 20 0 22 0;
#X connect 22 0 25 0;
#X connect 22 1 24 0;
#X connect 23 0 12 0;
#X connect 24 0 16 0;
#X connect 24 1 23 1;
#X connect 25 0 24 0;
#X connect 26 0 6 0;
#X connect 26 1 9 0;
#X connect 26 2 28 0;
#X connect 28 0 29 0;
#X connect 29 0 30 0;
#X connect 29 1 31 0;
#X connect 30 0 31 0;
#X connect 31 0 16 1;
