#N canvas 482 373 572 439 10;
#X obj 73 270 sig~ 70;
#X obj 30 301 vcf~ 10;
#X text 22 10 DKBD2~ 808-ish bass drum synth;
#X obj 29 217 *~ 5;
#X text 13 35 arg1 - center freq (70 Hz default);
#X text 16 60 arg2 - q value (default 10);
#X obj 27 145 inlet trig;
#X obj 116 145 inlet freq;
#X obj 116 167 f \$1;
#X obj 116 189 moses 1e-14;
#X msg 116 211 70;
#X obj 227 144 inlet q;
#X obj 227 166 f \$2;
#X obj 227 188 moses 1e-26;
#X msg 227 210 10;
#X obj 30 323 outlet~;
#X text 416 12 Derek Kwan 2016;
#X text 470 34 gpl v 2;
#X obj 232 96 loadbang;
#X obj 29 195 dkclik~ 64;
#X connect 0 0 1 1;
#X connect 1 0 15 0;
#X connect 3 0 1 0;
#X connect 6 0 19 0;
#X connect 7 0 8 0;
#X connect 8 0 9 0;
#X connect 9 0 10 0;
#X connect 9 1 0 0;
#X connect 10 0 0 0;
#X connect 11 0 12 0;
#X connect 12 0 13 0;
#X connect 13 0 14 0;
#X connect 13 1 1 2;
#X connect 14 0 1 2;
#X connect 18 0 8 0;
#X connect 18 0 12 0;
#X connect 19 0 3 0;
