#N canvas 99 285 1124 769 10;
#X obj 450 663 *~;
#X obj 485 636 vline~;
#X obj 271 577 +~;
#X obj 316 536 noise~;
#X obj 272 608 cos~;
#X obj 320 448 vline~;
#X obj 115 227 f;
#X obj 255 489 +~ 50;
#X obj 403 215 * 0.25;
#X obj 420 253 f;
#X obj 114 134 f \$1;
#X obj 500 243 f;
#X text 387 171 pitch glide proportion;
#X obj 253 216 f;
#X obj 626 249 f;
#X text 674 220 glide dur (prop);
#X obj 798 223 f;
#X obj 798 245 / 100;
#X text 848 206 noisiness (percent);
#X obj 987 236 f;
#X text 1032 219 lowpass (hz);
#X obj 319 334 pack 0 0;
#X obj 491 306 *;
#X obj 568 266 t b f;
#X obj 247 145 f \$2;
#X obj 488 154 f \$3;
#X obj 620 178 f \$4;
#X obj 799 157 f \$5;
#X obj 987 170 f \$6;
#X obj 53 192 t b b;
#X obj 536 402 f;
#X obj 39 122 inlet;
#X obj 457 717 outlet~;
#X obj 363 46 loadbang;
#X text 586 439 args: 1 main pitch \, 2 note dur (ms) \, 3 pitch glide
prop \, 4 glide dur prop \, 5 noisiness (%) \, 6 lowpass hz;
#X text 302 192 note dur (ms);
#X text 142 182 main pitch (hz);
#X text 20 45 Derek Kwan \, 2016;
#X text 9 18 dkbd1~: bass drum synth;
#X obj 646 17 inlet;
#X obj 865 67 bng 15 250 50 0 empty empty empty 17 7 0 10 -262144 -1
-1;
#X msg 865 87 error;
#X obj 865 109 print \$0-dkbd;
#X obj 247 167 moses 4.9999;
#X obj 115 157 moses 19.9999;
#X obj 493 189 moses 1e-09;
#X obj 620 200 moses 1e-09;
#X obj 798 179 moses 1e-20;
#X obj 987 192 moses 29.999;
#X text 588 491 inlets: 1 trigger \, 2 main pitch/note dur/itch glide
prop/glide dur prop/noisiness (%)/lowpass (hz);
#X obj 536 47 route pitch dur pgprop pgdur noiseamt lop;
#X text 592 599 args for 2nd inlet: pitch: main pitch \, dur: note
duration \, pgprop: pitch glide prop \, pgdur: pitch glide dur prop
\, noiseamt: noisiness( %) \, lop: lowpass(hz);
#X obj 485 658 *~;
#X obj 395 315 sqrt;
#X obj 320 470 *~;
#X msg 331 393 0 \, \$1 2 0 \, 0 \$2 2;
#X text 592 552 defaults: main pitch - 50 \, note dur - 125 \, pitch
glide prop - 0.75 \, glide dur prop - 0.75 \, noisiness - 0.3 \, lowpass
- 500;
#X obj 312 560 *~ 0.003;
#X obj 271 623 lop~ 750;
#X obj 239 541 phasor~ 50;
#X msg 247 189 300;
#X msg 987 214 1250;
#X msg 620 222 0.9;
#X msg 483 209 0.3;
#X obj 500 265 t b f;
#X msg 469 615 0 2 \, 1 2 2 \, 0 \$1 4;
#X msg 107 195 45;
#X msg 798 201 0.2, f 6;
#X connect 0 0 32 0;
#X connect 1 0 52 0;
#X connect 1 0 52 1;
#X connect 2 0 4 0;
#X connect 3 0 57 0;
#X connect 4 0 58 0;
#X connect 5 0 54 0;
#X connect 5 0 54 1;
#X connect 6 0 7 1;
#X connect 6 0 8 0;
#X connect 7 0 59 0;
#X connect 8 0 9 1;
#X connect 9 0 21 0;
#X connect 10 0 44 0;
#X connect 11 0 64 0;
#X connect 13 0 22 0;
#X connect 13 0 30 1;
#X connect 14 0 23 0;
#X connect 16 0 17 0;
#X connect 17 0 57 1;
#X connect 19 0 58 1;
#X connect 21 0 55 0;
#X connect 22 0 53 0;
#X connect 23 0 22 0;
#X connect 23 1 22 1;
#X connect 24 0 43 0;
#X connect 25 0 45 0;
#X connect 26 0 46 0;
#X connect 27 0 47 0;
#X connect 28 0 48 0;
#X connect 29 0 9 0;
#X connect 29 1 30 0;
#X connect 30 0 65 0;
#X connect 31 0 29 0;
#X connect 33 0 10 0;
#X connect 33 0 24 0;
#X connect 33 0 25 0;
#X connect 33 0 26 0;
#X connect 33 0 27 0;
#X connect 33 0 28 0;
#X connect 39 0 50 0;
#X connect 40 0 41 0;
#X connect 41 0 42 0;
#X connect 43 0 60 0;
#X connect 43 1 13 0;
#X connect 44 0 66 0;
#X connect 44 1 6 0;
#X connect 45 0 63 0;
#X connect 45 1 11 0;
#X connect 46 0 62 0;
#X connect 46 1 14 0;
#X connect 47 0 67 0;
#X connect 47 1 16 0;
#X connect 48 0 61 0;
#X connect 48 1 19 0;
#X connect 50 0 10 0;
#X connect 50 1 24 0;
#X connect 50 2 25 0;
#X connect 50 3 26 0;
#X connect 50 4 27 0;
#X connect 50 5 28 0;
#X connect 50 6 40 0;
#X connect 52 0 0 1;
#X connect 53 0 21 1;
#X connect 54 0 7 0;
#X connect 55 0 5 0;
#X connect 57 0 2 1;
#X connect 58 0 0 0;
#X connect 59 0 2 0;
#X connect 60 0 13 0;
#X connect 61 0 19 0;
#X connect 62 0 14 0;
#X connect 63 0 11 0;
#X connect 64 0 8 0;
#X connect 64 1 8 1;
#X connect 65 0 1 0;
#X connect 66 0 6 0;
#X connect 67 0 16 0;
