#N canvas 1056 191 696 661 12;
#N canvas 1076 117 735 734 dkbrass1-table 0;
#X obj 175 94 until;
#X obj 195 153 f 0;
#X msg 271 91 0;
#X obj 254 165 + 1;
#X obj 336 230 random 7;
#X obj 342 260 + 995;
#X obj 330 396 list prepend;
#X obj 310 457 list;
#X obj 170 440 list append;
#X obj 196 382 \$0;
#X obj 170 476 list trim;
#X obj 197 46 t b b b;
#X obj 342 322 / 16;
#X obj 429 257 pow;
#X obj 429 151 t b b f;
#X obj 342 347 * 1;
#X text 440 230 scaling \, 0.63^harm;
#X obj 225 314 bang;
#X obj 163 207 t f f f;
#X obj 189 265 sel 15;
#X msg 416 196 0.83;
#X obj 342 297 / 250;
#X obj 381 435 array define \$0-dkbrass1-sines 2051;
#X msg 162 542 \; \$1-dkbrass1-sines sinesum 2048 \$2 \$3 \$4 \$5 \$6
\$7 \$8 \$9 \$10 \$11 \$12 \$13 \$14 \$15 \$16 \$17;
#X obj 170 6 loadbang;
#X connect 0 0 1 0;
#X connect 1 0 18 0;
#X connect 2 0 1 1;
#X connect 3 0 1 1;
#X connect 4 0 5 0;
#X connect 5 0 21 0;
#X connect 6 0 7 0;
#X connect 7 0 6 1;
#X connect 7 0 8 1;
#X connect 8 0 10 0;
#X connect 9 0 8 0;
#X connect 10 0 23 0;
#X connect 11 0 0 0;
#X connect 11 1 2 0;
#X connect 11 2 7 0;
#X connect 12 0 15 0;
#X connect 13 0 15 1;
#X connect 14 0 4 0;
#X connect 14 1 20 0;
#X connect 14 2 13 1;
#X connect 15 0 6 0;
#X connect 17 0 9 0;
#X connect 17 0 0 1;
#X connect 18 0 19 0;
#X connect 18 1 3 0;
#X connect 18 2 14 0;
#X connect 19 0 17 0;
#X connect 20 0 13 0;
#X connect 21 0 12 0;
#X connect 24 0 11 0;
#X restore 492 17 pd dkbrass1-table;
#X obj 235 167 osc~ 5;
#X obj 187 216 tabosc4~ \$0-dkbrass1-sines;
#X obj 178 167 +~;
#X obj 170 134 sig~ 440;
#X obj 394 126 > 10;
#X obj 269 373 line~;
#X obj 275 266 t b b;
#X obj 269 398 *~ 1;
#X obj 191 501 *~;
#X obj 394 151 sel 1 0;
#X obj 261 495 vline~;
#X msg 385 410 0 200;
#X obj 199 99 moses 10;
#X obj 191 476 vcf~ 2;
#X msg 256 324 4 20;
#X msg 301 330 1 10;
#X obj 249 293 delay 10;
#X msg 315 458 1 10 \, 0.7 200 10;
#X obj 186 66 t f f;
#X obj 180 36 inlet;
#X text 8 9 dkbrass1~ - brass synth;
#X obj 194 552 outlet~;
#X obj 245 13 loadbang;
#X msg 245 38 0;
#X text 340 32 gpl v3;
#X text 436 50 borrowed from;
#X text 442 69 Epic Sax Guy (cheap version);
#X text 444 90 by rukano from sccode.org;
#X text 338 10 Derek Kwan 2017;
#X text 8 64 inlet: f - freq in hz;
#X connect 1 0 3 1;
#X connect 2 0 14 0;
#X connect 3 0 2 0;
#X connect 4 0 3 0;
#X connect 5 0 10 0;
#X connect 6 0 8 0;
#X connect 7 0 17 0;
#X connect 7 1 16 0;
#X connect 8 0 14 1;
#X connect 9 0 22 0;
#X connect 10 0 7 0;
#X connect 10 0 18 0;
#X connect 10 1 12 0;
#X connect 11 0 9 1;
#X connect 12 0 11 0;
#X connect 13 1 8 1;
#X connect 13 1 4 0;
#X connect 14 0 9 0;
#X connect 15 0 6 0;
#X connect 16 0 6 0;
#X connect 17 0 15 0;
#X connect 18 0 11 0;
#X connect 19 0 13 0;
#X connect 19 1 5 0;
#X connect 20 0 19 0;
#X connect 23 0 24 0;
#X connect 24 0 19 0;
