#N canvas 724 266 775 511 12;
#X obj 331 253 vline~;
#X msg 334 198 0 \, 1 1 0 \, 0 13 1 \, 1 0 14 \, 0 10 14 \, 1 0 24
\, 0 10 24 \, 1 0 34 \, 0 30 34;
#X obj 362 289 *~;
#X obj 336 339 *~;
#X obj 185 274 noise~;
#X obj 187 320 *~;
#X obj 187 345 hip~ 600;
#X obj 187 370 bp~ 2000 0.3;
#X obj 183 172 vline~;
#X msg 186 129 0 \, 1 20 0 \, 0 300 20;
#X obj 183 197 *~;
#X obj 183 222 *~;
#X obj 34 169 noise~;
#X obj 34 194 *~;
#X obj 34 219 hip~ 1000;
#X obj 33 245 bp~ 1200 1.43;
#X obj 35 271 *~ 0.7;
#X obj 34 428 +~;
#X obj 331 71 inlet;
#X text 392 73 trigger;
#X obj 32 465 outlet~;
#X text 15 39 Derek Kwan 2016 \, GPL v3;
#X text 422 11 borrowed from 08091500Acid309 by otophilia;
#X text 569 35 written in SuperCollider;
#X text 15 11 dkclap2~ - clap synthesizer;
#X connect 0 0 2 0;
#X connect 0 0 2 1;
#X connect 0 0 3 1;
#X connect 1 0 0 0;
#X connect 2 0 3 0;
#X connect 3 0 5 1;
#X connect 4 0 5 0;
#X connect 5 0 6 0;
#X connect 6 0 7 0;
#X connect 7 0 17 1;
#X connect 8 0 10 0;
#X connect 8 0 10 1;
#X connect 9 0 8 0;
#X connect 10 0 11 0;
#X connect 10 0 11 1;
#X connect 11 0 13 1;
#X connect 12 0 13 0;
#X connect 13 0 14 0;
#X connect 14 0 15 0;
#X connect 15 0 16 0;
#X connect 16 0 17 0;
#X connect 17 0 20 0;
#X connect 18 0 9 0;
#X connect 18 0 1 0;
