#N canvas 353 419 701 484 10;
#X obj 121 172 noise~;
#X obj 171 216 *~;
#X obj 171 238 hip~ 600;
#X obj 171 260 lop~;
#X obj 310 340 line;
#X obj 159 72 t b b;
#X obj 295 256 t b b;
#X msg 366 276 7200;
#X msg 297 300 4000 30;
#X obj 46 203 *~;
#X obj 46 225 hip~ 1000;
#X obj 45 262 lop~ 7600;
#X obj 45 284 bp~ 1230 13;
#X obj 51 318 *~ 0.7;
#X obj 263 137 vline~;
#X msg 254 101 0 \, 1 1 0 \, 0 9 1 \, 0.965 0 10 \, 0 8 10 \, 0.89
0 18 \, 0 10 18 \, 0.8 0 28 \, 0 30 28;
#X obj 242 181 *~;
#X obj 230 216 *~;
#X obj 61 129 dkenv~ perc 2 180 1 -4;
#X obj 171 280 bp~ 1620 3;
#X obj 51 357 +~;
#X obj 51 379 outlet~;
#X obj 155 38 inlet trig;
#X text 317 52 adapted from snappizz's electro drum kit on SCCODE;
#X text 557 30 Derek Kwan 2016;
#X text 617 74 gpl v 2;
#X text 9 9 dkclap1~ - clap synthesizer;
#X connect 0 0 1 0;
#X connect 0 0 9 0;
#X connect 1 0 2 0;
#X connect 2 0 3 0;
#X connect 3 0 19 0;
#X connect 4 0 3 1;
#X connect 5 0 18 0;
#X connect 5 1 6 0;
#X connect 5 1 15 0;
#X connect 6 0 8 0;
#X connect 6 1 7 0;
#X connect 7 0 4 0;
#X connect 8 0 4 0;
#X connect 9 0 10 0;
#X connect 10 0 11 0;
#X connect 11 0 12 0;
#X connect 12 0 13 0;
#X connect 13 0 20 0;
#X connect 14 0 16 0;
#X connect 14 0 16 1;
#X connect 15 0 14 0;
#X connect 16 0 17 1;
#X connect 16 0 17 0;
#X connect 17 0 1 1;
#X connect 18 0 9 1;
#X connect 19 0 20 1;
#X connect 20 0 21 0;
#X connect 22 0 5 0;
