#N canvas 559 426 1282 671 12;
#X obj 548 180 +~;
#X obj 541 288 biquad~ 0.968752 -0.710791 0.669886 -1.33977 0.669886
;
#X obj 542 317 biquad~ 0.968752 -0.710791 0.669886 -1.33977 0.669886
;
#X obj 550 566 *~;
#X obj 746 396 + 2;
#X obj 791 391 + 52;
#X msg 694 473 1 2 \, 0.4 \$1 \$2 \, 0 50 \$3;
#X obj 699 358 t f f f;
#X obj 694 448 pack f f f;
#X obj 693 503 vline~;
#X obj 549 585 +~;
#X obj 533 251 biquad~ 0.834059 -0.537305 0.175812 0.351623 0.175812
;
#X obj 693 528 *~;
#X obj 536 617 outlet~;
#N canvas 321 173 1289 694 dkcymb808-1-sig1 0;
#X obj 51 113 >~ 0.5;
#X obj 197 87 phasor~ 1245.04;
#X obj 197 112 >~ 0.5;
#X obj 356 110 >~ 0.5;
#X obj 50 88 phasor~ 839.881;
#X obj 356 85 phasor~ 1511.83;
#X obj 515 115 >~ 0.5;
#X obj 515 90 phasor~ 2137.88;
#X obj 669 89 phasor~ 2210.81;
#X obj 669 114 >~ 0.5;
#X obj 829 98 phasor~ 3321.94;
#X obj 829 123 >~ 0.5;
#X obj 80 206 +~;
#X obj 69 259 ==~ 6;
#X obj 179 263 ==~ 2;
#X obj 279 268 ==~ 1;
#X obj 69 284 *~ 0.6;
#X obj 179 288 *~ 0.2;
#X obj 279 293 *~ 0.9;
#X obj 102 346 +~;
#X msg 415 290 1;
#X obj 378 260 t f b;
#X msg 352 294 0.6 \$1;
#X obj 352 319 line~;
#X obj 102 371 *~;
#X obj 383 19 inlet;
#X obj 383 217 f;
#X obj 512 28 inlet;
#X text 564 31 dur;
#X text 433 22 trig;
#X msg 383 44 bang;
#X obj 102 396 outlet~;
#X obj 352 349 *~;
#X text 682 38 same freqs as sig2 but * 4.09;
#X connect 0 0 12 0;
#X connect 1 0 2 0;
#X connect 2 0 12 0;
#X connect 3 0 12 0;
#X connect 4 0 0 0;
#X connect 5 0 3 0;
#X connect 6 0 12 1;
#X connect 7 0 6 0;
#X connect 8 0 9 0;
#X connect 9 0 12 1;
#X connect 10 0 11 0;
#X connect 11 0 12 1;
#X connect 12 0 13 0;
#X connect 12 0 14 0;
#X connect 12 0 15 0;
#X connect 13 0 16 0;
#X connect 14 0 17 0;
#X connect 15 0 18 0;
#X connect 16 0 19 0;
#X connect 17 0 19 0;
#X connect 18 0 19 1;
#X connect 19 0 24 0;
#X connect 20 0 23 0;
#X connect 21 0 22 0;
#X connect 21 1 20 0;
#X connect 22 0 23 0;
#X connect 23 0 32 0;
#X connect 23 0 32 1;
#X connect 24 0 31 0;
#X connect 25 0 30 0;
#X connect 26 0 21 0;
#X connect 27 0 26 1;
#X connect 30 0 26 0;
#X connect 32 0 24 1;
#X restore 548 155 pd dkcymb808-1-sig1;
#N canvas 814 290 1179 470 dkcymb808-1-sig2 0;
#X obj 80 206 +~;
#X obj 50 88 phasor~ 205.35;
#X obj 197 87 phasor~ 304.41;
#X obj 356 85 phasor~ 369.84;
#X obj 515 90 phasor~ 522.71;
#X obj 669 89 phasor~ 540.54;
#X obj 829 98 phasor~ 812.21;
#X obj 51 113 >~ 0.55;
#X obj 197 112 >~ 0.55;
#X obj 356 110 >~ 0.55;
#X obj 515 115 >~ 0.55;
#X obj 669 114 >~ 0.55;
#X obj 829 123 >~ 0.55;
#X obj 80 231 *~ 0.9;
#X obj 80 256 outlet~;
#X connect 0 0 13 0;
#X connect 1 0 7 0;
#X connect 2 0 8 0;
#X connect 3 0 9 0;
#X connect 4 0 10 0;
#X connect 5 0 11 0;
#X connect 6 0 12 0;
#X connect 7 0 0 0;
#X connect 8 0 0 0;
#X connect 9 0 0 0;
#X connect 10 0 0 1;
#X connect 11 0 0 1;
#X connect 12 0 0 1;
#X connect 13 0 14 0;
#X restore 731 156 pd dkcymb808-1-sig2;
#X text 21 13 dkcymb808-1~;
#X obj 766 544 delwrite~ \$0-dkcymb808-1-del 5;
#X obj 627 582 delread~ \$0-dkcymb808-1-del 5;
#X text 21 49 808 cymbal synth;
#X text 12 80 ported from Ryan Brown's SuperCollider code;
#X text 10 104 found in the the supercollider-quarks repo;
#X text 11 129 folder SynthDefPool on github;
#X msg 802 109 250;
#X obj 560 110 f;
#X text 16 278 ARGS: duration in ms;
#X text 8 347 INLETS: trig/duration;
#X text 18 401 OUTLET: signal;
#X obj 542 15 inlet;
#X msg 542 40 bang;
#X text 592 13 trig;
#X obj 790 6 inlet;
#X text 842 8 duration;
#X obj 802 84 moses 1e-30;
#X obj 790 41 f \$1;
#X obj 687 6 loadbang;
#X text 1060 6 derek kwan 2017;
#X text 1060 23 pdksynth;
#X text 1057 40 gpl v 3;
#X text 1051 114 requires zexy;
#X connect 0 0 11 0;
#X connect 1 0 2 0;
#X connect 2 0 3 0;
#X connect 3 0 10 0;
#X connect 3 0 17 0;
#X connect 4 0 8 1;
#X connect 5 0 8 2;
#X connect 6 0 9 0;
#X connect 7 0 8 0;
#X connect 7 1 4 0;
#X connect 7 2 5 0;
#X connect 8 0 6 0;
#X connect 9 0 12 0;
#X connect 9 0 12 1;
#X connect 10 0 13 0;
#X connect 11 0 1 0;
#X connect 12 0 3 1;
#X connect 14 0 0 0;
#X connect 15 0 0 1;
#X connect 18 0 10 1;
#X connect 23 0 24 1;
#X connect 24 0 14 0;
#X connect 24 0 7 0;
#X connect 28 0 29 0;
#X connect 29 0 24 0;
#X connect 31 0 34 0;
#X connect 33 0 23 0;
#X connect 33 1 24 1;
#X connect 34 0 33 0;
#X connect 35 0 34 0;
