#N canvas 856 201 651 691 12;
#X obj 80 258 /~ 5;
#X obj 371 260 /~ 7;
#X obj 105 365 vcf~ 2;
#X obj 123 316 sig~ 800;
#X obj 231 440 +~;
#X obj 238 29 inlet;
#X obj 238 54 t f f;
#X obj 298 102 > 10;
#X obj 298 127 sel 1 0;
#X obj 231 465 *~;
#X obj 384 469 line~;
#X obj 352 347 t b b;
#X msg 350 376 1 3;
#X obj 405 368 delay 3;
#X msg 405 393 0.75 10;
#X msg 483 414 0 125;
#X obj 370 40 loadbang;
#X msg 370 65 0;
#X msg 83 184 all \$1;
#X msg 378 190 all \$1;
#X text 89 36 Derek Kwan 2016;
#X text 95 64 gpl v 3;
#X text 6 11 dkdesyp1~ DEtuned SYnth Pad;
#X text 40 549 based on "Detuned Synth Pad" by coreyker;
#X text 38 567 from sccode.org;
#X text 38 592 based on;
#X text 39 614 http://www.attackmagazine.com/technique/synth-secrets/detuned-pad/
;
#X obj 231 490 outlet~;
#X obj 166 123 moses 10;
#X text 298 7 inlet 1: freq in Hz;
#X obj 80 233 clone -x util/dkdesyp-osc1~ 5 12;
#X obj 371 235 clone -x util/dkdesyp-osc2~ 7 8;
#X connect 0 0 2 0;
#X connect 1 0 4 1;
#X connect 2 1 4 0;
#X connect 3 0 2 1;
#X connect 4 0 9 0;
#X connect 5 0 6 0;
#X connect 6 0 28 0;
#X connect 6 1 7 0;
#X connect 7 0 8 0;
#X connect 8 0 11 0;
#X connect 8 1 15 0;
#X connect 9 0 27 0;
#X connect 10 0 9 1;
#X connect 11 0 12 0;
#X connect 11 1 13 0;
#X connect 12 0 10 0;
#X connect 13 0 14 0;
#X connect 14 0 10 0;
#X connect 15 0 10 0;
#X connect 16 0 17 0;
#X connect 17 0 6 0;
#X connect 18 0 30 0;
#X connect 19 0 31 0;
#X connect 28 1 18 0;
#X connect 28 1 19 0;
#X connect 30 0 0 0;
#X connect 31 0 1 0;
