#N canvas 764 614 811 383 12;
#X msg 430 212 all \$1;
#X obj 433 100 inlet;
#X text 486 91 freq;
#X obj 418 332 outlet~;
#X text 14 106 ported from jpdarago's;
#X text 12 132 saw synth with iteration;
#X text 19 153 on github:;
#X text 15 177 https://github.com/jpdarago/supercollider-sounds;
#X text 22 276 INLET/ARG:;
#X text 24 299 freq in Hz;
#X text 9 12 dkdesaw1~;
#X text 11 32 dktuned saw synth;
#X text 652 44 derek kwan 2017;
#X text 656 64 pdksynth;
#X text 659 93 gpl v 3;
#X obj 433 125 f \$1;
#X obj 518 41 loadbang;
#X obj 417 270 clone -x util/dkdesaw1-osc~ 5;
#X connect 0 0 17 0;
#X connect 1 0 15 0;
#X connect 15 0 0 0;
#X connect 16 0 15 0;
#X connect 17 0 3 0;
