#N canvas 217 237 822 622 12;
#X obj 216 111 sel 1 2 3 A 4 5 6 B 7 8 9 C * 0 # D;
#X msg 206 152 0 0;
#X msg 249 154 0 1;
#X msg 294 156 0 2;
#X msg 332 158 0 3;
#X msg 209 188 1 0;
#X msg 249 193 1 1;
#X msg 292 191 1 2;
#X msg 331 197 1 3;
#X msg 202 220 2 0;
#X msg 249 221 2 1;
#X msg 295 223 2 2;
#X msg 339 225 2 3;
#X msg 203 253 3 0;
#X msg 251 249 3 1;
#X msg 297 254 3 2;
#X msg 337 254 3 3;
#X obj 199 324 unpack f f;
#X obj 286 360 sel 0 1 2 3;
#X obj 115 373 sel 0 1 2 3;
#X msg 260 409 1209;
#X text 103 335 row;
#X text 297 330 col;
#X msg 307 411 1336;
#X msg 354 412 1477;
#X msg 66 411 697;
#X msg 107 413 770;
#X msg 147 417 852;
#X msg 189 415 941;
#X obj 80 472 osc~;
#X obj 80 497 +~;
#X obj 138 478 osc~;
#X msg 415 414 1633;
#X obj 79 540 *~;
#X msg 486 417 1 5;
#X msg 525 416 0 5;
#X obj 212 24 inlet;
#X obj 212 49 t a b, f 43;
#X obj 486 442 line~;
#X obj 79 565 outlet~;
#X text 8 11 dkdtmf~;
#X text 5 38 dtmf synth;
#X text 9 106 INLETS:;
#X text 7 128 symbol;
#X text 12 183 OUTLETS:;
#X text 7 207 signal;
#X text 658 7 derek kwan 2017;
#X text 659 30 pdksynth;
#X text 661 55 gpl v 3;
#X connect 0 0 1 0;
#X connect 0 1 2 0;
#X connect 0 2 3 0;
#X connect 0 3 4 0;
#X connect 0 4 5 0;
#X connect 0 5 6 0;
#X connect 0 6 7 0;
#X connect 0 7 8 0;
#X connect 0 8 9 0;
#X connect 0 9 10 0;
#X connect 0 10 11 0;
#X connect 0 11 12 0;
#X connect 0 12 13 0;
#X connect 0 13 14 0;
#X connect 0 14 15 0;
#X connect 0 15 16 0;
#X connect 0 16 35 0;
#X connect 1 0 17 0;
#X connect 2 0 17 0;
#X connect 3 0 17 0;
#X connect 4 0 17 0;
#X connect 5 0 17 0;
#X connect 6 0 17 0;
#X connect 7 0 17 0;
#X connect 8 0 17 0;
#X connect 9 0 17 0;
#X connect 10 0 17 0;
#X connect 11 0 17 0;
#X connect 12 0 17 0;
#X connect 13 0 17 0;
#X connect 14 0 17 0;
#X connect 15 0 17 0;
#X connect 16 0 17 0;
#X connect 17 0 19 0;
#X connect 17 1 18 0;
#X connect 18 0 20 0;
#X connect 18 1 23 0;
#X connect 18 2 24 0;
#X connect 18 3 32 0;
#X connect 19 0 25 0;
#X connect 19 1 26 0;
#X connect 19 2 27 0;
#X connect 19 3 28 0;
#X connect 20 0 31 0;
#X connect 23 0 31 0;
#X connect 24 0 31 0;
#X connect 25 0 29 0;
#X connect 26 0 29 0;
#X connect 27 0 29 0;
#X connect 28 0 29 0;
#X connect 29 0 30 0;
#X connect 30 0 33 0;
#X connect 31 0 30 1;
#X connect 32 0 31 0;
#X connect 33 0 39 0;
#X connect 34 0 38 0;
#X connect 35 0 38 0;
#X connect 36 0 37 0;
#X connect 37 0 0 0;
#X connect 37 1 34 0;
#X connect 38 0 33 1;
