#N canvas 239 199 1046 577 12;
#X obj 473 137 clip~ 0 1;
#X obj 227 263 /~;
#X obj 252 320 *~;
#X obj 355 295 *~ -1;
#X obj 373 382 *~;
#X obj 250 434 +~;
#X obj 355 320 /~;
#X obj 372 235 >~;
#X obj 284 198 <~;
#X obj 355 270 -~ 1;
#X obj 432 227 -~ 1;
#X obj 432 252 *~ -1;
#X obj 472 27 inlet~;
#X obj 225 62 inlet;
#X obj 250 459 outlet~;
#X text 12 14 dkdutysaw~;
#X text 11 41 variable-duty saw;
#X obj 218 129 phasor~ \$1;
#X text 11 188 ARGS:;
#X text 13 210 freq;
#X obj 624 28 inlet;
#X text 24 273 INLETS:;
#X text 17 299 freq/duty/phase;
#X text 23 372 OUTLETS:;
#X text 17 399 sig~;
#X text 907 7 derek kwan 2017;
#X text 904 37 pdksynth;
#X text 905 66 gpl v 3;
#X text 903 107 requires zexy;
#X connect 0 0 1 1;
#X connect 0 0 7 1;
#X connect 0 0 8 1;
#X connect 0 0 10 0;
#X connect 1 0 2 0;
#X connect 2 0 5 0;
#X connect 3 0 6 0;
#X connect 4 0 5 1;
#X connect 5 0 14 0;
#X connect 6 0 4 0;
#X connect 7 0 4 1;
#X connect 8 0 2 1;
#X connect 9 0 3 0;
#X connect 10 0 11 0;
#X connect 11 0 6 1;
#X connect 12 0 0 0;
#X connect 13 0 17 0;
#X connect 17 0 1 0;
#X connect 17 0 7 0;
#X connect 17 0 8 0;
#X connect 17 0 9 0;
#X connect 20 0 17 1;
