#N canvas 726 148 888 398 12;
#X obj 246 179 <~;
#X obj 406 109 inlet~;
#X obj 406 134 clip~ 0 1;
#X obj 236 122 phasor~ \$1;
#X obj 252 73 inlet;
#X obj 246 276 outlet~;
#X text 35 18 dkdutysq~;
#X obj 246 204 *~ 2;
#X obj 246 229 -~ 1;
#X obj 520 52 inlet;
#X text 32 45 variable-duty square wave;
#X text 28 109 ARGS:;
#X text 30 131 freq;
#X text 41 194 INLETS:;
#X text 34 220 freq/duty/phase;
#X text 40 293 OUTLETS:;
#X text 34 320 sig~;
#X text 738 12 derek kwan 2017;
#X text 735 42 pdksynth;
#X text 736 71 gpl v 3;
#X text 731 109 requires zexy;
#X connect 0 0 7 0;
#X connect 1 0 2 0;
#X connect 2 0 0 1;
#X connect 3 0 0 0;
#X connect 4 0 3 0;
#X connect 7 0 8 0;
#X connect 8 0 5 0;
#X connect 9 0 3 1;
