#N canvas 64 123 1206 586 12;
#X obj 401 86 inlet;
#X text 453 112 freq;
#X obj 401 141 f \$1;
#X obj 579 84 inlet;
#X text 633 116 fm amt;
#X obj 579 139 f \$2;
#X obj 810 84 inlet;
#X obj 810 137 f \$3;
#X text 860 110 pm amt;
#X obj 538 364 +~;
#X obj 530 36 loadbang;
#X obj 538 389 *~;
#X msg 619 327 1 5 \, 0 5 250;
#X obj 619 352 vline~;
#X obj 538 436 outlet~;
#X text 14 47 everything-modulated-sine;
#X text 13 15 dkemsine1~;
#N canvas 101 182 450 300 \$0-dkemsine-fmod 0;
#X obj 187 171 osc~;
#X obj 198 215 *~ 1;
#X obj 262 185 clip 0 20;
#X obj 196 134 / 3;
#X text 236 137 freqmod;
#X obj 200 94 inlet;
#X text 259 95 freq;
#X obj 342 110 inlet;
#X text 344 148 amt;
#X obj 198 240 outlet~;
#X connect 0 0 1 0;
#X connect 1 0 9 0;
#X connect 2 0 1 1;
#X connect 3 0 0 0;
#X connect 5 0 3 0;
#X connect 7 0 2 0;
#X restore 432 206 pd \$0-dkemsine-fmod;
#N canvas 1 101 450 300 \$0-pdkemsine-pmod 0;
#X obj 101 107 / 2;
#X obj 101 142 osc~;
#X obj 164 133 osc~ 2.2;
#X obj 164 158 *~ 1;
#X obj 253 129 clip 0 10;
#X obj 164 183 +~ 1;
#X obj 101 167 *~;
#X text 300 18 phasemod;
#X obj 100 73 inlet;
#X text 149 71 freq;
#X obj 259 63 inlet;
#X text 314 66 amt;
#X obj 101 233 outlet~;
#X connect 0 0 1 0;
#X connect 1 0 6 0;
#X connect 2 0 3 0;
#X connect 3 0 5 0;
#X connect 4 0 3 1;
#X connect 4 0 5 1;
#X connect 5 0 6 1;
#X connect 6 0 12 0;
#X connect 8 0 0 0;
#X connect 10 0 4 0;
#X restore 614 206 pd \$0-pdkemsine-pmod;
#N canvas 1 103 450 300 \$0-pdkemsine-amod 0;
#X obj 183 138 / 0.75;
#X obj 183 163 osc~;
#X obj 186 104 inlet;
#X text 233 106 freq;
#X obj 183 188 outlet~;
#X text 286 69 amp mod;
#X connect 0 0 1 0;
#X connect 1 0 4 0;
#X connect 2 0 0 0;
#X restore 820 208 pd \$0-pdkemsine-amod;
#N canvas 121 178 649 589 \$0-pdkemsine-s2 0;
#X obj 158 326 cos~;
#X obj 158 253 phasor~;
#X obj 103 143 -~ 0.5;
#X obj 158 213 *~;
#X text 158 64 freq;
#X obj 246 88 inlet~;
#X text 306 90 fm;
#X obj 158 278 +~;
#X obj 366 90 inlet~;
#X text 431 91 pm;
#X obj 158 351 *~;
#X obj 102 67 inlet;
#X obj 102 92 sig~;
#X text 534 92 am;
#X obj 158 376 outlet~;
#X obj 482 91 inlet~;
#X connect 0 0 10 0;
#X connect 1 0 7 0;
#X connect 2 0 3 0;
#X connect 3 0 1 0;
#X connect 5 0 3 1;
#X connect 7 0 0 0;
#X connect 8 0 7 1;
#X connect 10 0 14 0;
#X connect 11 0 12 0;
#X connect 12 0 2 0;
#X connect 15 0 10 1;
#X restore 569 281 pd \$0-pdkemsine-s2;
#N canvas 105 137 867 551 \$0-pdkemsine-s1 0;
#X obj 242 358 cos~;
#X obj 242 285 phasor~;
#X obj 187 175 -~ 0.5;
#X obj 242 245 *~;
#X text 242 96 freq;
#X obj 330 120 inlet~;
#X text 390 122 fm;
#X obj 242 310 +~;
#X obj 450 122 inlet~;
#X text 515 123 pm;
#X obj 242 383 *~;
#X obj 186 99 inlet;
#X obj 186 124 sig~;
#X text 618 124 am;
#X obj 242 408 outlet~;
#X obj 566 123 inlet~;
#X connect 0 0 10 0;
#X connect 1 0 7 0;
#X connect 2 0 3 0;
#X connect 3 0 1 0;
#X connect 5 0 3 1;
#X connect 7 0 0 0;
#X connect 8 0 7 1;
#X connect 10 0 14 0;
#X connect 11 0 12 0;
#X connect 12 0 2 0;
#X connect 15 0 10 1;
#X restore 395 284 pd \$0-pdkemsine-s1;
#X text 8 98 ported from shybyte's;
#X text 8 123 dapmod supercollider;
#X text 12 152 code on github;
#X text 15 224 ARGS:;
#X text 634 140 0-20;
#X text 861 136 0-10;
#X text 11 315 INLETS:;
#X text 13 344 freq/fm-amt/pm-amt;
#X text 9 252 freq-Hz/fm-amt/pm-amt;
#X text 16 403 OUTLETS:;
#X text 18 426 sig~;
#X text 10 182 https://github.com/shybyte/supercollider-songs;
#X text 942 22 derek kwan 2017;
#X text 944 49 pdksynth;
#X text 944 73 gpl v 3;
#X connect 0 0 2 0;
#X connect 2 0 17 0;
#X connect 2 0 21 0;
#X connect 2 0 20 0;
#X connect 3 0 5 0;
#X connect 5 0 17 1;
#X connect 6 0 7 0;
#X connect 7 0 18 1;
#X connect 9 0 11 0;
#X connect 10 0 2 0;
#X connect 10 0 5 0;
#X connect 10 0 7 0;
#X connect 11 0 14 0;
#X connect 12 0 13 0;
#X connect 13 0 11 1;
#X connect 17 0 21 1;
#X connect 17 0 20 1;
#X connect 18 0 21 2;
#X connect 18 0 20 2;
#X connect 19 0 20 3;
#X connect 19 0 21 3;
#X connect 20 0 9 1;
#X connect 21 0 9 0;
