#N canvas 741 271 996 709 12;
#X obj 157 184 noise~;
#X obj 157 206 *~ 0.5;
#X obj 157 228 *~;
#X obj 70 233 +~;
#X obj 60 382 lop~ 15000;
#X obj 60 404 *~;
#X obj 67 311 hip~ 10000;
#X obj 148 267 random 5000;
#X obj 148 289 + 5000;
#X obj 98 132 t b b b;
#X msg 297 182 1 \$1 1 -16;
#X obj 271 49 f \$1;
#X obj 270 76 moses 1e-08;
#X msg 270 98 500;
#X obj 271 137 / 2;
#X msg 282 307 1 \$1 1 -16;
#X obj 397 256 f;
#X obj 60 527 outlet~;
#X text 289 392 based off the SC work of Mycelial Cords;
#X text 290 416 https://mycelialcordsblog.wordpress.com/2015/11/18/hihatand-glitchhat-synthesis-beginning/
;
#X text 1 11 dkhh2~ - hi hat synth;
#X text 359 325 Note: eventually replace hip~ with resonant hipass
;
#X text 576 10 Derek Kwan 2016;
#X text 344 46 release time;
#X obj 466 23 loadbang;
#X obj 190 350 pdkm/dkenv~ perc 1 500 1 -16;
#X obj 223 208 pdkm/dkenv~ perc 1 250 1 -16;
#X obj 49 181 pdkm/dkpink~;
#X text 577 32 pdksynth;
#X text 585 52 gpl v 3;
#X obj 98 31 inlet;
#X obj 271 27 inlet;
#X obj 60 428 *~ 1;
#X text 153 36 trig/vol;
#X obj 98 55 route bang float;
#X obj 150 101 t b f;
#X msg 105 80 1;
#X connect 0 0 1 0;
#X connect 1 0 2 0;
#X connect 2 0 3 1;
#X connect 3 0 6 0;
#X connect 4 0 5 0;
#X connect 5 0 32 0;
#X connect 6 0 4 0;
#X connect 7 0 8 0;
#X connect 8 0 6 1;
#X connect 9 0 25 0;
#X connect 9 1 26 0;
#X connect 9 2 7 0;
#X connect 10 0 26 2;
#X connect 11 0 12 0;
#X connect 12 0 13 0;
#X connect 12 1 14 0;
#X connect 12 1 16 0;
#X connect 13 0 14 0;
#X connect 13 0 16 0;
#X connect 14 0 10 0;
#X connect 15 0 25 2;
#X connect 16 0 15 0;
#X connect 24 0 11 0;
#X connect 25 0 5 1;
#X connect 26 0 2 1;
#X connect 27 0 3 0;
#X connect 30 0 34 0;
#X connect 31 0 11 0;
#X connect 32 0 17 0;
#X connect 34 0 36 0;
#X connect 34 1 35 0;
#X connect 35 0 9 0;
#X connect 35 1 32 1;
#X connect 36 0 35 0;
