#N canvas 407 354 1102 773 12;
#X obj 109 138 noise~;
#X obj 109 162 *~;
#X obj 226 408 vcf~ 10;
#X obj 220 493 outlet~;
#X obj 267 86 pdkvabs/dkvanssimp~ 1;
#X obj 269 188 pdkvabs/dkdecay2~ 2 75;
#X text 17 19 dkhh3~ - hi-hat synthesis;
#X obj 273 29 inlet;
#X text 327 26 trig;
#X obj 553 61 inlet;
#X text 549 355 inlet: trig \, messages;
#X text 552 310 args: freq \, q \, attack \, decay \, thickness;
#N canvas 1461 411 938 579 dkhh3-args 0;
#X obj 80 27 loadbang;
#X obj 80 51 t b b b b b, f 73;
#X obj 77 132 f \$1;
#X obj 77 156 moses 1e-20;
#X msg 77 180 7000;
#X text 122 128 freq;
#X obj 197 131 f \$2;
#X obj 197 155 moses 1e-20;
#X msg 197 179 10;
#X text 237 124 q;
#X obj 319 132 f \$3;
#X obj 319 156 moses 1e-20;
#X msg 319 180 2;
#X text 356 128 attack;
#X obj 428 130 f \$4;
#X obj 428 154 moses 1e-20;
#X text 480 127 decay;
#X obj 574 117 f \$5;
#X obj 574 141 moses 1e-20;
#X msg 428 178 75;
#X text 609 117 thickness;
#X msg 581 177 1;
#X obj 83 379 pack f f f f f, f 67;
#X msg 83 403 freq \$1 \, q \$2 \, attack \$3 \, decay \$4 \, thickness
\$5;
#X obj 83 427 outlet;
#X connect 0 0 1 0;
#X connect 1 0 2 0;
#X connect 1 1 6 0;
#X connect 1 2 10 0;
#X connect 1 3 14 0;
#X connect 1 4 17 0;
#X connect 2 0 3 0;
#X connect 3 0 4 0;
#X connect 3 1 22 0;
#X connect 4 0 22 0;
#X connect 6 0 7 0;
#X connect 7 0 8 0;
#X connect 7 1 22 1;
#X connect 8 0 22 1;
#X connect 10 0 11 0;
#X connect 11 0 12 0;
#X connect 11 1 22 2;
#X connect 12 0 22 2;
#X connect 14 0 15 0;
#X connect 15 0 19 0;
#X connect 15 1 22 3;
#X connect 17 0 18 0;
#X connect 18 0 21 0;
#X connect 18 1 22 4;
#X connect 19 0 22 3;
#X connect 21 0 22 4;
#X connect 22 0 23 0;
#X connect 23 0 24 0;
#X restore 664 43 pd dkhh3-args;
#X obj 559 158 route thickness attack decay freq q;
#X text 828 25 derek kwan;
#X text 834 45 pdksynth;
#X text 838 63 gpl v 3;
#X connect 0 0 1 0;
#X connect 1 0 2 0;
#X connect 2 0 3 0;
#X connect 4 0 5 0;
#X connect 5 0 1 1;
#X connect 7 0 4 0;
#X connect 9 0 13 0;
#X connect 12 0 13 0;
#X connect 13 0 4 1;
#X connect 13 1 5 1;
#X connect 13 2 5 2;
#X connect 13 3 2 1;
#X connect 13 4 2 2;
