#N canvas 381 263 1423 616 12;
#X obj 343 234 noise~;
#X obj 343 256 *~;
#X obj 426 257 *~;
#X obj 426 279 *~;
#X obj 425 236 line~;
#X obj 504 250 *~;
#X obj 504 272 *~;
#X obj 503 229 line~;
#X obj 426 301 *~;
#X obj 504 294 *~;
#X obj 449 18 inlet;
#X obj 342 546 outlet~;
#X obj 344 394 hip~ 10000;
#X obj 346 372 vcf~ 200;
#X text 652 7 Derek Kwan 2016;
#X text 653 29 pdksynth;
#X text 661 49 gpl v 3;
#X text 1 11 dkhh1~ - hi hat synth;
#X obj 617 92 inlet;
#X msg 422 191 1 \, 0 \$1;
#X obj 693 119 loadbang;
#X obj 696 195 f \$1;
#X msg 696 243 125;
#X obj 842 101 inlet;
#X text 900 104 freq;
#X obj 780 196 f \$2;
#X msg 780 244 5000;
#X obj 827 374 * 2;
#X obj 780 336 t b f f;
#X obj 721 417 pack f f f;
#X obj 456 131 list;
#X obj 777 287 min 10000;
#X msg 497 184 \$2 \, \$3 \$1;
#X text 676 85 dur;
#X obj 986 118 inlet;
#X text 1032 120 hipass;
#X obj 693 143 t b b b, f 27;
#X obj 893 183 f \$3;
#X msg 893 231 10000;
#X obj 954 290 f;
#X text 16 96 args: dur \, freq \, hipass;
#X text 15 147 inlets: trig \, dur \, freq \, hipass;
#X obj 696 219 moses 1;
#X obj 780 220 moses 1;
#X obj 893 207 moses 1;
#X obj 344 494 *~ 1, f 25;
#X text 489 14 trig/vol;
#X obj 449 42 route bang float;
#X obj 483 98 t b f;
#X msg 441 70 1;
#X connect 0 0 1 0;
#X connect 1 0 13 0;
#X connect 2 0 3 0;
#X connect 2 0 3 1;
#X connect 3 0 8 0;
#X connect 3 0 8 1;
#X connect 4 0 2 0;
#X connect 4 0 2 1;
#X connect 5 0 6 0;
#X connect 5 0 6 1;
#X connect 6 0 9 0;
#X connect 6 0 9 1;
#X connect 7 0 5 0;
#X connect 7 0 5 1;
#X connect 8 0 1 1;
#X connect 9 0 13 1;
#X connect 10 0 47 0;
#X connect 12 0 45 0;
#X connect 13 0 12 0;
#X connect 18 0 42 0;
#X connect 19 0 4 0;
#X connect 20 0 36 0;
#X connect 21 0 42 0;
#X connect 22 0 29 0;
#X connect 23 0 31 0;
#X connect 25 0 43 0;
#X connect 26 0 31 0;
#X connect 27 0 29 2;
#X connect 28 0 29 0;
#X connect 28 1 29 1;
#X connect 28 2 27 0;
#X connect 29 0 30 1;
#X connect 30 0 19 0;
#X connect 30 0 32 0;
#X connect 31 0 28 0;
#X connect 32 0 7 0;
#X connect 34 0 39 0;
#X connect 36 0 21 0;
#X connect 36 1 25 0;
#X connect 36 2 37 0;
#X connect 37 0 44 0;
#X connect 38 0 39 0;
#X connect 39 0 12 1;
#X connect 42 0 22 0;
#X connect 42 1 29 0;
#X connect 43 0 26 0;
#X connect 43 1 31 0;
#X connect 44 0 38 0;
#X connect 44 1 39 0;
#X connect 45 0 11 0;
#X connect 47 0 49 0;
#X connect 47 1 48 0;
#X connect 48 0 30 0;
#X connect 48 1 45 1;
#X connect 49 0 48 0;
