#N canvas 745 267 745 485 10;
#X obj 223 208 dkenv~ perc 1 250 1 -16;
#X obj 157 184 noise~;
#X obj 157 206 *~ 0.5;
#X obj 157 228 *~;
#X obj 70 233 +~;
#X obj 60 382 lop~ 15000;
#X obj 60 404 *~;
#X obj 49 181 dkpink~;
#X obj 67 311 hip~ 10000;
#X obj 148 267 random 5000;
#X obj 148 289 + 5000;
#X obj 98 132 t b b b;
#X msg 297 182 1 \$1 1 -16;
#X obj 271 27 inlet release;
#X obj 271 49 f \$1;
#X obj 270 76 moses 1e-08;
#X msg 270 98 500;
#X obj 190 350 dkenv~ perc 1 500 1 -16;
#X obj 271 137 / 2;
#X msg 282 307 1 \$1 1 -16;
#X obj 397 256 f;
#X obj 98 31 inlet trig;
#X obj 60 426 outlet~;
#X text 289 392 based off the SC work of Mycelial Cords;
#X text 290 416 https://mycelialcordsblog.wordpress.com/2015/11/18/hihatand-glitchhat-synthesis-beginning/
;
#X text 1 11 dkhh2~ - hi hat synth;
#X text 359 325 Note: eventually replace hip~ with resonant hipass
;
#X text 576 10 Derek Kwan 2016;
#X text 344 46 release time;
#X obj 466 23 loadbang;
#X connect 0 0 3 1;
#X connect 1 0 2 0;
#X connect 2 0 3 0;
#X connect 3 0 4 1;
#X connect 4 0 8 0;
#X connect 5 0 6 0;
#X connect 6 0 22 0;
#X connect 7 0 4 0;
#X connect 8 0 5 0;
#X connect 9 0 10 0;
#X connect 10 0 8 1;
#X connect 11 0 17 0;
#X connect 11 1 0 0;
#X connect 11 2 9 0;
#X connect 12 0 0 2;
#X connect 13 0 14 0;
#X connect 14 0 15 0;
#X connect 15 0 16 0;
#X connect 15 1 18 0;
#X connect 15 1 20 0;
#X connect 16 0 18 0;
#X connect 16 0 20 0;
#X connect 17 0 6 1;
#X connect 18 0 12 0;
#X connect 19 0 17 2;
#X connect 20 0 19 0;
#X connect 21 0 11 0;
#X connect 29 0 14 0;
