#N canvas 864 222 790 484 12;
#X obj 170 215 noise~;
#X obj 170 263 *~;
#X obj 225 234 vline~;
#X obj 195 155 t b f;
#X msg 318 201 1000;
#X obj 326 234 /, f 6;
#X obj 322 169 t b f, f 7;
#X msg 225 210 1 0 \, 0 0 1;
#X obj 416 141 loadbang;
#X obj 416 174 f \$1;
#X obj 417 203 clip 0 1;
#X text 21 27 dkkarplus~ - karplus-strong synthesis;
#X text 23 97 args: feedback;
#X obj 221 439 outlet~;
#N canvas 716 437 832 558 \$0-dkkarplus_del 0;
#X obj 254 216 delwrite~ \$0-dkkarplus 1000;
#X obj 302 274 delread~ \$0-dkkarplus 1000;
#X obj 301 320 *~ 0.9;
#X obj 258 151 inlet~;
#X obj 592 250 block~ 1;
#X obj 301 344 outlet~;
#X obj 487 127 inlet;
#X text 539 131 deltime;
#X obj 626 125 inlet;
#X text 676 126 feedback;
#X connect 1 0 2 0;
#X connect 2 0 0 0;
#X connect 2 0 5 0;
#X connect 3 0 0 0;
#X connect 6 0 1 0;
#X connect 8 0 2 1;
#X restore 221 415 pd \$0-dkkarplus_del;
#X text 20 75 outlet: sig;
#X obj 200 113 inlet;
#X text 243 111 freq;
#X text 20 56 inlets: freq/trig \, feedback;
#X text 432 108 feedback;
#X obj 371 109 inlet;
#X text 507 64 gpl v 3;
#X text 507 42 pdkvabs;
#X text 501 21 derek kwan 2018;
#X connect 0 0 1 0;
#X connect 1 0 14 0;
#X connect 2 0 1 1;
#X connect 3 0 7 0;
#X connect 3 1 6 0;
#X connect 4 0 5 0;
#X connect 5 0 14 1;
#X connect 6 0 4 0;
#X connect 6 1 5 1;
#X connect 7 0 2 0;
#X connect 8 0 9 0;
#X connect 9 0 10 0;
#X connect 10 0 14 2;
#X connect 14 0 13 0;
#X connect 16 0 3 0;
#X connect 20 0 9 0;
