#N canvas 964 272 1055 801 12;
#X obj 314 565 *~;
#X obj 238 687 +~;
#X obj 267 307 > 10;
#X obj 168 308 t f f;
#X obj 314 640 pdkm/dksnbnkr~ 240 2020 3151 -mode abs;
#X obj 737 419 loadbang;
#N canvas 957 193 859 636 dkklba1-freqlist 0;
#X obj 247 234 random 501;
#X obj 247 259 / 10000;
#X obj 247 284 + 0.97;
#X obj 247 309 * 240;
#X obj 373 233 random 501;
#X obj 373 258 / 10000;
#X obj 373 283 + 0.97;
#X obj 373 308 * 2020;
#X obj 484 230 random 501;
#X obj 484 255 / 10000;
#X obj 484 280 + 0.97;
#X obj 484 305 * 3151;
#X obj 252 167 t b b b;
#X obj 256 351 pack f f f;
#X obj 256 376 outlet;
#X obj 274 122 inlet;
#X connect 0 0 1 0;
#X connect 1 0 2 0;
#X connect 2 0 3 0;
#X connect 3 0 13 0;
#X connect 4 0 5 0;
#X connect 5 0 6 0;
#X connect 6 0 7 0;
#X connect 7 0 13 1;
#X connect 8 0 9 0;
#X connect 9 0 10 0;
#X connect 10 0 11 0;
#X connect 11 0 13 2;
#X connect 12 0 0 0;
#X connect 12 1 4 0;
#X connect 12 2 8 0;
#X connect 13 0 14 0;
#X connect 15 0 12 0;
#X restore 437 456 pd dkklba1-freqlist;
#X obj 356 262 sel 1;
#X obj 366 309 t b b;
#X obj 213 455 *~;
#X obj 487 258 random 1001;
#X obj 238 712 outlet~;
#X obj 185 196 inlet;
#X obj 486 288 + 2500;
#X obj 145 352 moses 10;
#X obj 210 423 osc~;
#X obj 314 665 lop~ 10000;
#X msg 429 583 0.446684 1 1.41254;
#X obj 486 510 pdkm/dkenv~ perc 1 10 1 -4;
#X msg 475 320 5 \$1 1 -8;
#X obj 355 376 pdkm/dkenv~ perc 5 300 1 -8;
#X obj 325 689 *~ 0.4;
#X obj 238 662 *~ 0.6;
#X obj 305 468 pdkm/dkpink~ 1.5;
#X msg 661 592 600 35 55;
#X obj 314 590 *~ 0.05;
#X obj 294 521 bp~ 6500 15;
#X text 4 11 dkkalim1~ - kalimba synth;
#X text 4 31 requires dkenv~ \, dkpink~ and dksnbnkr~ from pdkm;
#X text 687 12 Derek Kwan 2016;
#X text 693 36 gpl v 3;
#X text 9 92 based on "Kalimba" by snappizz and p. dupuis;
#X text 7 117 from sccode.org;
#X text 20 165 inlet 1: freq in Hz;
#X connect 0 0 25 0;
#X connect 1 0 11 0;
#X connect 2 0 7 0;
#X connect 3 0 14 0;
#X connect 3 1 2 0;
#X connect 4 0 16 0;
#X connect 5 0 24 0;
#X connect 5 0 17 0;
#X connect 6 0 4 2;
#X connect 7 0 8 0;
#X connect 8 0 18 0;
#X connect 8 0 20 0;
#X connect 8 1 6 0;
#X connect 8 1 10 0;
#X connect 9 0 22 0;
#X connect 10 0 13 0;
#X connect 12 0 3 0;
#X connect 13 0 19 0;
#X connect 14 1 15 0;
#X connect 15 0 9 0;
#X connect 16 0 21 0;
#X connect 17 0 4 3;
#X connect 18 0 0 1;
#X connect 19 0 20 2;
#X connect 20 0 9 1;
#X connect 21 0 1 1;
#X connect 22 0 1 0;
#X connect 23 0 26 0;
#X connect 24 0 4 4;
#X connect 25 0 4 0;
#X connect 26 0 0 0;
