#N canvas 303 216 664 641 12;
#X obj 102 182 t f f;
#X obj 101 224 moses 10;
#X obj 76 312 osc~ 440;
#X obj 168 318 osc~ 440;
#X obj 290 323 osc~ 440;
#X obj 381 319 osc~ 440;
#X obj 466 234 > 10;
#X obj 85 397 +~;
#X obj 85 422 *~;
#X obj 411 436 line~;
#X msg 405 404 1 5;
#X obj 466 259 sel 1 0;
#X msg 448 395 0 10;
#X obj 168 343 *~ 0.22;
#X obj 290 348 *~ 0.22;
#X obj 381 344 *~ 0.22;
#X obj 76 337 *~ 0.34;
#X obj 287 281 * 2;
#X obj 399 254 * 4;
#X obj 76 287 * 0.5;
#X text 255 31 gpl v3;
#X text 413 13 borrowed from;
#X text 419 32 Epic Sax Guy (cheap version);
#X text 421 53 by rukano from sccode.org;
#X text 253 9 Derek Kwan 2017;
#X text 8 64 inlet: f - freq in hz;
#X text 8 9 dkorgan1~ - organ synth;
#X obj 107 119 inlet;
#X obj 175 121 loadbang;
#X msg 175 146 0;
#X obj 68 482 outlet~;
#X connect 0 0 1 0;
#X connect 0 1 6 0;
#X connect 1 1 3 0;
#X connect 1 1 17 0;
#X connect 1 1 18 0;
#X connect 1 1 19 0;
#X connect 2 0 16 0;
#X connect 3 0 13 0;
#X connect 4 0 14 0;
#X connect 5 0 15 0;
#X connect 6 0 11 0;
#X connect 7 0 8 0;
#X connect 8 0 30 0;
#X connect 9 0 8 1;
#X connect 10 0 9 0;
#X connect 11 0 10 0;
#X connect 11 1 12 0;
#X connect 12 0 9 0;
#X connect 13 0 7 0;
#X connect 14 0 7 1;
#X connect 15 0 7 1;
#X connect 16 0 7 0;
#X connect 17 0 4 0;
#X connect 18 0 5 0;
#X connect 19 0 2 0;
#X connect 27 0 0 0;
#X connect 28 0 29 0;
#X connect 29 0 0 0;
