#N canvas 404 182 1186 627 12;
#X obj 565 189 vline~;
#X obj 678 168 pdkm/dknoiz~ 3000;
#X msg 329 256 all \$1;
#X obj 745 202 loadbang;
#X msg 689 235 0 offset -0.04 \, 1 offset 0 \, 2 offset 0.03;
#X obj 315 412 hip~ 50;
#X obj 469 172 t b f b;
#X obj 415 371 f 1000;
#X obj 394 432 vline~;
#X obj 394 457 *~;
#X obj 394 482 *~;
#X obj 434 68 t f f;
#X obj 321 331 vcf~ 30;
#X obj 320 364 *~ 1;
#X msg 565 164 1 8 \, 0 40 20;
#X obj 317 481 *~;
#X msg 394 407 1 8 \, 0 \$1 20;
#X obj 374 170 * 1.5;
#X obj 320 294 clone -x util/dkpiano1-delb~ 3 \$0-dkpiano1-del;
#X text 27 562 https://raw.githubusercontent.com/supercollider-quarks/SynthDefPool/master/pool/cheappiano.scd
;
#X text 19 91 ported from supercollider's cheap piano;
#X text 19 119 from the quarks synthdefpool;
#X obj 440 25 inlet;
#X obj 590 29 inlet;
#X obj 590 54 f \$1;
#X msg 590 104 1000;
#X obj 590 79 moses 1;
#X text 648 31 duration (ms);
#X text 17 22 dkpiano1~;
#X text 32 230 args: duration(ms);
#X text 25 298 outlets: signal;
#X obj 317 506 outlet~;
#X obj 493 246 *~;
#X text 942 18 derek kwan 2017;
#X text 941 39 pdksynth;
#X text 941 63 gpl v 3;
#X text 935 130 requires dknoiz~ and dkcmb~;
#X text 937 156 from pdkm;
#X obj 785 24 inlet;
#X obj 783 56 f \$2;
#X obj 773 79 moses 1;
#X msg 778 123 1.5;
#X obj 412 224 ftom;
#X text 498 32 freq;
#X text 20 264 inlets: freq + trigger/duration;
#X connect 0 0 32 0;
#X connect 1 0 32 1;
#X connect 2 0 18 0;
#X connect 3 0 4 0;
#X connect 3 0 24 0;
#X connect 3 0 39 0;
#X connect 4 0 18 2;
#X connect 5 0 15 0;
#X connect 6 0 7 0;
#X connect 6 1 42 0;
#X connect 6 2 14 0;
#X connect 7 0 16 0;
#X connect 8 0 9 0;
#X connect 8 0 9 1;
#X connect 9 0 10 0;
#X connect 9 0 10 1;
#X connect 10 0 15 1;
#X connect 11 0 6 0;
#X connect 11 1 17 0;
#X connect 12 1 13 0;
#X connect 13 0 5 0;
#X connect 14 0 0 0;
#X connect 15 0 31 0;
#X connect 16 0 8 0;
#X connect 17 0 12 1;
#X connect 18 0 12 0;
#X connect 22 0 11 0;
#X connect 23 0 24 0;
#X connect 24 0 26 0;
#X connect 25 0 7 1;
#X connect 26 0 25 0;
#X connect 26 1 7 1;
#X connect 32 0 18 1;
#X connect 38 0 39 0;
#X connect 39 0 40 0;
#X connect 40 0 41 0;
#X connect 40 1 17 1;
#X connect 41 0 17 1;
#X connect 42 0 2 0;
