#N canvas 491 123 1338 494 12;
#X obj 504 375 <~;
#X obj 419 193 phasor~;
#X obj 516 199 phasor~;
#X obj 465 126 / 2;
#X obj 418 164 - 0.2;
#X obj 525 162 + 0.2;
#X obj 598 378 <~;
#X obj 658 213 osc~;
#X obj 654 161 clip 0.5 4;
#X obj 664 252 *~ 1;
#X obj 771 190 clip 0 0.45;
#X obj 652 287 +~ 0.5;
#X obj 777 77 inlet;
#X obj 777 130 f \$3;
#X obj 653 30 inlet;
#X obj 657 122 f \$2;
#X obj 598 403 *~ 0.6;
#X obj 504 400 +~;
#X obj 461 79 f \$1;
#X obj 465 31 inlet;
#X text 518 31 freq;
#X text 706 32 pwm freq (0.5 -4);
#X text 834 80 pwm amt (0-0.45);
#X obj 567 10 loadbang;
#X text 24 15 dkpwmsq1~;
#X text 28 41 pw-modded square wave;
#X obj 504 425 outlet~;
#X text 8 98 ported from shybyte's;
#X text 12 152 code on github;
#X text 15 224 ARGS:;
#X text 11 315 INLETS:;
#X text 16 403 OUTLETS:;
#X text 18 426 sig~;
#X text 10 182 https://github.com/shybyte/supercollider-songs;
#X text 9 252 freq-Hz/pwm-freq/pwm-amt;
#X text 13 344 freq/pwm-freq/pwm-amt;
#X text 1063 4 derek kwan 2017;
#X text 1069 23 pdksynth;
#X text 1072 46 gpl v 3;
#X text 8 123 pmod supercollider;
#X connect 0 0 17 0;
#X connect 1 0 0 0;
#X connect 2 0 6 0;
#X connect 3 0 4 0;
#X connect 3 0 5 0;
#X connect 4 0 1 0;
#X connect 5 0 2 0;
#X connect 6 0 16 0;
#X connect 7 0 9 0;
#X connect 8 0 7 0;
#X connect 9 0 11 0;
#X connect 10 0 9 1;
#X connect 11 0 6 1;
#X connect 11 0 0 1;
#X connect 12 0 13 0;
#X connect 13 0 10 0;
#X connect 14 0 15 0;
#X connect 15 0 8 0;
#X connect 16 0 17 1;
#X connect 17 0 26 0;
#X connect 18 0 3 0;
#X connect 19 0 18 0;
#X connect 23 0 18 0;
#X connect 23 0 15 0;
#X connect 23 0 13 0;
