#N canvas 1490 546 703 458 12;
#X obj 137 156 osc~ 10000;
#X obj 135 200 *~;
#X obj 279 149 osc~;
#X obj 215 16 inlet;
#X obj 135 225 *~;
#X obj 279 192 *~;
#X obj 178 274 -~;
#X obj 276 246 *~;
#X obj 178 343 *~;
#X obj 356 278 *~;
#X obj 356 249 pdkm/dknoiz~ 1.1 0.22361 0.31623 1;
#X obj 215 120 line~;
#X text 275 21 freq;
#X obj 380 14 inlet;
#X text 436 12 lag time;
#X obj 215 70 pack f 30;
#X text 11 17 dkradiotuning~;
#X text 6 50 based off jnarveson's;
#X text 8 72 radiostatic for SC;
#X text 15 96 (sans static);
#X text 539 5 derek kwan;
#X text 539 43 pdksynth;
#X text 547 72 gpl v 3;
#X obj 178 368 outlet~;
#X connect 0 0 1 0;
#X connect 0 0 1 1;
#X connect 0 0 7 0;
#X connect 1 0 4 0;
#X connect 2 0 4 1;
#X connect 2 0 5 0;
#X connect 2 0 5 1;
#X connect 3 0 15 0;
#X connect 4 0 6 0;
#X connect 5 0 7 1;
#X connect 6 0 8 0;
#X connect 7 0 6 1;
#X connect 8 0 23 0;
#X connect 9 0 8 1;
#X connect 10 0 9 0;
#X connect 10 0 9 1;
#X connect 11 0 2 0;
#X connect 13 0 15 1;
#X connect 15 0 11 0;
