#N canvas 1000 258 1387 615 12;
#X obj 484 244 array define \$0-hum 1024;
#X msg 477 173 sinesum 1024 1 0.5 0.33 0.25 0.2 0.167 0.143;
#X obj 475 204 s \$0-hum;
#X obj 284 375 tabosc4~ \$0-hum;
#X obj 445 375 pdkm/dkpop~;
#X obj 394 457 *~;
#X obj 394 482 *~;
#X obj 464 299 pdkm/dknoiz~ 0.5 1000 8000 1;
#X obj 394 507 outlet~;
#X obj 279 82 inlet;
#X text 333 86 freq;
#X text 44 33 dkradiostatic~ - adapted from jnarveson's radiostatic
;
#X text 175 55 (sans tuning noise);
#X text 873 71 derek kwan;
#X text 873 109 pdksynth;
#X text 881 138 gpl v 3;
#X obj 528 117 loadbang;
#X obj 324 239 f \$1;
#X obj 642 375 pdkm/dknoiz~ 1 0.707107 1.41421 1;
#X obj 647 425 *~;
#X text 480 33 for SC;
#X connect 1 0 2 0;
#X connect 3 0 5 0;
#X connect 4 0 5 1;
#X connect 5 0 6 0;
#X connect 6 0 8 0;
#X connect 7 0 4 0;
#X connect 9 0 3 0;
#X connect 16 0 1 0;
#X connect 16 0 17 0;
#X connect 17 0 3 0;
#X connect 18 0 19 0;
#X connect 18 0 19 1;
#X connect 19 0 6 1;
