#N canvas 574 330 649 489 10;
#X obj 243 164 osc~;
#X obj 243 186 *~;
#X obj 299 52 bang;
#X obj 147 147 noise~;
#X obj 147 191 *~;
#X obj 147 213 +~;
#X obj 243 142 +~ 160;
#X obj 147 169 bp~ 810 0.8;
#X obj 285 11 inlet trig;
#X obj 368 10 inlet basefreq;
#X obj 369 32 f \$1;
#X obj 368 54 moses 1e-08;
#X msg 358 78 160;
#X obj 503 13 loadbang;
#X text 26 20 DKSD2~ - snare drum synth;
#X text 249 226 adapted from snappizz's electro drum kit on SCCODE
;
#X text 489 204 Derek Kwan 2016;
#X text 549 248 gpl v 2;
#X obj 147 235 outlet~;
#X text 21 38 arg/in1: basefreq (default 160 Hz);
#X obj 329 156 pdkm/dkenv~ perc 1 110 0.7 -4;
#X obj 243 120 pdkm/dkenv~ perc 5 10 3101 -2;
#X obj 168 94 pdkm/dkenv~ perc 1 150 1 -4;
#X connect 0 0 1 0;
#X connect 1 0 5 1;
#X connect 2 0 20 0;
#X connect 2 0 21 0;
#X connect 2 0 22 0;
#X connect 3 0 7 0;
#X connect 4 0 5 0;
#X connect 5 0 18 0;
#X connect 6 0 0 0;
#X connect 7 0 4 0;
#X connect 8 0 2 0;
#X connect 9 0 10 0;
#X connect 10 0 11 0;
#X connect 11 0 12 0;
#X connect 11 1 6 1;
#X connect 12 0 6 1;
#X connect 13 0 10 0;
#X connect 20 0 1 1;
#X connect 21 0 6 0;
#X connect 22 0 4 1;
