#N canvas 1436 495 1036 695 12;
#X obj 109 138 noise~;
#X obj 109 162 *~;
#X obj 226 408 vcf~ 10;
#X obj 220 493 outlet~;
#X obj 273 29 inlet;
#X obj 553 61 inlet;
#X text 552 310 args: freq \, q \, attack \, decay \, thickness;
#X obj 559 115 route thickness attack decay freq q;
#X text 828 25 derek kwan;
#X text 834 45 pdksynth;
#X text 838 63 gpl v 3;
#X obj 267 159 pdkvabs/dkvanssimp~ 5;
#X obj 267 205 /~ 1;
#X obj 470 128 / 5;
#X obj 454 55 t f f;
#X obj 269 239 pdkvabs/dkdecay2~ 2 250;
#X obj 269 302 *~;
#X text 17 19 dksd5~ - snare-drum synthesis;
#N canvas 1461 411 938 579 dksd5-args 0;
#X obj 80 27 loadbang;
#X obj 80 51 t b b b b b, f 73;
#X obj 77 132 f \$1;
#X obj 77 156 moses 1e-20;
#X text 122 128 freq;
#X obj 197 131 f \$2;
#X obj 197 155 moses 1e-20;
#X msg 197 179 10;
#X text 237 124 q;
#X obj 319 132 f \$3;
#X obj 319 156 moses 1e-20;
#X msg 319 180 2;
#X text 356 128 attack;
#X obj 428 130 f \$4;
#X obj 428 154 moses 1e-20;
#X text 480 127 decay;
#X obj 574 117 f \$5;
#X obj 574 141 moses 1e-20;
#X text 609 117 thickness;
#X obj 83 379 pack f f f f f, f 67;
#X msg 83 403 freq \$1 \, q \$2 \, attack \$3 \, decay \$4 \, thickness
\$5;
#X obj 83 427 outlet;
#X msg 77 180 400;
#X msg 428 178 250;
#X msg 581 177 5;
#X connect 0 0 1 0;
#X connect 1 0 2 0;
#X connect 1 1 5 0;
#X connect 1 2 9 0;
#X connect 1 3 13 0;
#X connect 1 4 16 0;
#X connect 2 0 3 0;
#X connect 3 0 22 0;
#X connect 3 1 19 0;
#X connect 5 0 6 0;
#X connect 6 0 7 0;
#X connect 6 1 19 1;
#X connect 7 0 19 1;
#X connect 9 0 10 0;
#X connect 10 0 11 0;
#X connect 10 1 19 2;
#X connect 11 0 19 2;
#X connect 13 0 14 0;
#X connect 14 0 23 0;
#X connect 14 1 19 3;
#X connect 16 0 17 0;
#X connect 17 0 24 0;
#X connect 17 1 19 4;
#X connect 19 0 20 0;
#X connect 20 0 21 0;
#X connect 22 0 19 0;
#X connect 23 0 19 3;
#X connect 24 0 19 4;
#X restore 664 43 pd dksd5-args;
#X text 327 26 trig/vol;
#X obj 273 53 route bang float;
#X obj 226 432 *~ 1;
#X text 549 355 inlet: trig/vol \, messages;
#X obj 317 124 t b f;
#X msg 273 90 1;
#X connect 0 0 1 0;
#X connect 1 0 2 0;
#X connect 2 0 21 0;
#X connect 4 0 20 0;
#X connect 5 0 7 0;
#X connect 7 0 14 0;
#X connect 7 1 15 1;
#X connect 7 2 15 2;
#X connect 7 3 2 1;
#X connect 7 4 2 2;
#X connect 11 0 12 0;
#X connect 12 0 15 0;
#X connect 13 0 12 1;
#X connect 14 0 11 1;
#X connect 14 1 13 0;
#X connect 15 0 16 0;
#X connect 15 0 16 1;
#X connect 16 0 1 1;
#X connect 18 0 7 0;
#X connect 20 0 24 0;
#X connect 20 1 23 0;
#X connect 21 0 3 0;
#X connect 23 0 11 0;
#X connect 23 1 21 1;
#X connect 24 0 23 0;
