#N canvas 24 177 1416 622 12;
#X obj 861 479 switch~;
#X msg 820 392 1;
#X msg 895 430 0;
#X text 799 533 audio computation on/off;
#X obj 918 392 del, f 13;
#N canvas 204 270 809 665 dksd3-osc 0;
#X obj 187 269 osc~ 330;
#X obj 480 288 osc~ 180;
#X obj 301 213 vline~;
#X obj 85 231 vline~;
#X obj 157 331 *~;
#X obj 332 327 *~;
#X obj 100 258 *~;
#X obj 319 282 *~;
#X obj 333 355 *~ 0.75;
#X obj 109 130 * 0.533;
#X obj 302 134 * 0.933;
#X msg 63 179 1 3 0 \, 0 \$1 3;
#X msg 280 170 1 3 0 \, 0 \$1 3;
#X obj 175 421 outlet~;
#X obj 281 70 inlet;
#X text 335 68 float len trigger;
#X obj 590 43 inlet;
#X text 644 46 freq;
#X obj 518 90 * 1.833;
#X connect 0 0 4 1;
#X connect 1 0 5 1;
#X connect 2 0 7 0;
#X connect 2 0 7 1;
#X connect 3 0 6 0;
#X connect 3 0 6 1;
#X connect 4 0 13 0;
#X connect 5 0 8 0;
#X connect 6 0 4 0;
#X connect 7 0 5 0;
#X connect 8 0 13 0;
#X connect 9 0 11 0;
#X connect 10 0 12 0;
#X connect 11 0 3 0;
#X connect 12 0 2 0;
#X connect 14 0 9 0;
#X connect 14 0 10 0;
#X connect 16 0 18 0;
#X connect 16 0 1 0;
#X connect 18 0 0 0;
#X restore 277 396 pd dksd3-osc;
#N canvas 786 430 761 572 dksd3-noise 0;
#X obj 362 137 noise~;
#X obj 153 183 vline~;
#X obj 154 240 *~;
#X obj 257 121 vline~;
#X obj 280 170 *~;
#X obj 190 319 *~;
#X obj 259 345 *~;
#X obj 100 431 *~ 0.5;
#X obj 367 213 lop~ 1000;
#X obj 375 287 hip~ 950;
#X obj 93 511 *~;
#X obj 111 91 * 0.66, f 7;
#X obj 239 31 * 0.466;
#X msg 102 132 1 3 0 \, 0 50 3;
#X msg 236 71 1 3 0 \, 0 \$1 3;
#X obj 52 7 inlet;
#X text 110 7 float len trig;
#X obj 570 45 inlet;
#X text 622 46 lop freq;
#X obj 570 70 * 0.95;
#X obj 93 536 outlet~;
#X connect 0 0 8 0;
#X connect 1 0 2 0;
#X connect 1 0 2 1;
#X connect 2 0 5 0;
#X connect 3 0 4 0;
#X connect 3 0 4 1;
#X connect 4 0 6 0;
#X connect 5 0 7 0;
#X connect 6 0 10 0;
#X connect 7 0 10 0;
#X connect 8 0 9 0;
#X connect 8 0 5 1;
#X connect 9 0 6 1;
#X connect 10 0 20 0;
#X connect 11 0 13 0;
#X connect 12 0 14 0;
#X connect 13 0 1 0;
#X connect 14 0 3 0;
#X connect 15 0 11 0;
#X connect 15 0 12 0;
#X connect 17 0 19 0;
#X connect 19 0 9 1;
#X connect 19 0 8 1;
#X restore 425 393 pd dksd3-noise;
#X obj 393 219 moses 1;
#X msg 376 257 100;
#X obj 397 174 f \$1;
#X obj 633 160 f \$2;
#X msg 617 223 180;
#X obj 617 198 moses 1, f 24;
#X text 679 161 tone freq;
#X obj 906 180 f \$3;
#X text 952 176 low pass freq;
#X obj 906 205 moses 1, f 19;
#X msg 858 234 1000;
#X text 9 44 adapted to abstraction format from;
#X text 12 68 snare1.pd of ichabod from pdpatchrepo;
#X text 9 18 dksd3~ - snare drum synth;
#X obj 396 32 inlet;
#X obj 532 69 inlet;
#X obj 645 67 inlet;
#X obj 895 65 inlet;
#X obj 804 64 loadbang;
#X text 4 200 args:length(ms)/tone(Hz)/lowpass(Hz);
#X text 5 176 outlets:signal;
#X text 1225 7 derek kwan;
#X text 1228 32 pdksynth;
#X text 1231 54 gpl v 3;
#X text 10 93 (original credits: sg 2008);
#X obj 409 304 t f b f b, f 75;
#X msg 947 342 stop;
#X text 4 156 inlets: trigger/dur(ms)/tone(Hz)/low pass(Hz);
#X text 438 174 dur note;
#X obj 386 470 *~ 1;
#X obj 386 494 outlet~;
#X text 461 25 trig/vol;
#X obj 396 56 route bang float;
#X obj 410 112 t b f;
#X msg 352 90 1;
#X connect 1 0 0 0;
#X connect 2 0 0 0;
#X connect 4 0 2 0;
#X connect 5 0 36 0;
#X connect 6 0 36 0;
#X connect 7 0 8 0;
#X connect 7 1 32 0;
#X connect 8 0 32 0;
#X connect 9 0 7 0;
#X connect 10 0 12 0;
#X connect 11 0 5 1;
#X connect 12 0 11 0;
#X connect 12 1 5 1;
#X connect 14 0 16 0;
#X connect 16 0 17 0;
#X connect 16 1 6 1;
#X connect 17 0 6 1;
#X connect 21 0 39 0;
#X connect 22 0 9 1;
#X connect 23 0 10 0;
#X connect 24 0 14 0;
#X connect 25 0 10 0;
#X connect 25 0 14 0;
#X connect 32 0 6 0;
#X connect 32 0 5 0;
#X connect 32 1 1 0;
#X connect 32 1 4 0;
#X connect 32 2 4 1;
#X connect 32 3 33 0;
#X connect 33 0 4 0;
#X connect 36 0 37 0;
#X connect 39 0 41 0;
#X connect 39 1 40 0;
#X connect 40 0 9 0;
#X connect 40 1 36 1;
#X connect 41 0 40 0;
