#N canvas 574 330 1015 735 12;
#X obj 274 426 osc~;
#X obj 274 448 *~;
#X obj 178 409 noise~;
#X obj 178 453 *~;
#X obj 178 475 +~;
#X obj 274 404 +~ 160;
#X obj 178 431 bp~ 810 0.8;
#X obj 490 78 f \$1;
#X obj 489 100 moses 1e-08;
#X msg 483 144 160;
#X obj 662 6 loadbang;
#X text 26 20 DKSD2~ - snare drum synth;
#X text 280 488 adapted from snappizz's electro drum kit on SCCODE
;
#X text 520 466 Derek Kwan 2016;
#X text 580 510 gpl v 2;
#X obj 178 648 outlet~;
#X text 21 38 arg/in1: basefreq (default 160 Hz);
#X obj 360 418 pdkm/dkenv~ perc 1 110 0.7 -4;
#X obj 274 382 pdkm/dkenv~ perc 5 10 3101 -2;
#X obj 190 248 pdkm/dkenv~ perc 1 150 1 -4;
#X text 529 16 freq;
#X obj 495 10 inlet;
#X text 418 14 trig/vol;
#X obj 336 11 inlet;
#X obj 323 52 route bang float;
#X obj 365 110 t b f;
#X obj 178 582 *~ 1;
#X msg 323 76 1;
#X connect 0 0 1 0;
#X connect 1 0 4 1;
#X connect 2 0 6 0;
#X connect 3 0 4 0;
#X connect 4 0 26 0;
#X connect 5 0 0 0;
#X connect 6 0 3 0;
#X connect 7 0 8 0;
#X connect 8 0 9 0;
#X connect 8 1 5 1;
#X connect 9 0 5 1;
#X connect 10 0 7 0;
#X connect 17 0 1 1;
#X connect 18 0 5 0;
#X connect 19 0 3 1;
#X connect 21 0 7 0;
#X connect 23 0 24 0;
#X connect 24 0 27 0;
#X connect 24 1 25 0;
#X connect 25 0 19 0;
#X connect 25 0 18 0;
#X connect 25 0 17 0;
#X connect 25 1 26 1;
#X connect 26 0 15 0;
#X connect 27 0 25 0;
