#N canvas 411 221 1339 502 12;
#X obj 287 261 phasor~ 440;
#X obj 521 293 phasor~;
#X obj 305 196 +~;
#X obj 537 137 *~ -1;
#X obj 537 162 +~ 1;
#X obj 478 187 min~;
#X obj 478 212 *~;
#X obj 287 336 +~;
#X obj 521 318 *~ 0.5;
#X obj 287 286 >~;
#X obj 425 293 osc~ 5;
#X obj 425 318 *~ 0.25;
#X obj 425 343 +~ 0.4;
#X obj 244 173 *~ 2;
#X obj 344 161 *~ 0.01;
#X obj 475 90 phasor~ 10;
#X obj 531 257 *~ 2.003;
#X obj 292 402 vcf~ 3;
#X text 20 6 dkstring1~;
#X text 21 26 first attempt at a string synth;
#X obj 307 37 inlet;
#X text 356 45 pitch HZ;
#X obj 653 39 inlet;
#X text 703 39 vib depth;
#X obj 653 64 clip 0 0.4;
#X obj 793 33 inlet;
#X text 849 32 detune upper;
#X obj 791 131 + 2;
#X obj 793 58 / 1000;
#X obj 791 156 clip 2 2.01;
#X obj 980 32 inlet;
#X text 1034 35 fund random;
#X text 22 131 ARGS:;
#X obj 318 114 sig~ \$1;
#X text 17 156 pitch(Hz);
#X text 25 189 INLET:;
#X text 17 211 Hz/vibdepth/detune/pitchrandom;
#X text 14 262 OUTLET:;
#X text 12 284 sig;
#X obj 311 452 outlet~;
#X text 1146 23 derek kwan 2017;
#X text 1149 45 pdksynth;
#X text 1150 66 gpl v 3;
#X text 1149 89 requires zexy sigbinops;
#X connect 0 0 9 0;
#X connect 1 0 8 0;
#X connect 2 0 0 0;
#X connect 2 0 16 0;
#X connect 3 0 4 0;
#X connect 4 0 5 1;
#X connect 5 0 6 0;
#X connect 6 0 2 1;
#X connect 7 0 17 0;
#X connect 8 0 7 1;
#X connect 9 0 7 0;
#X connect 10 0 11 0;
#X connect 11 0 12 0;
#X connect 12 0 9 1;
#X connect 13 0 17 1;
#X connect 14 0 6 1;
#X connect 15 0 3 0;
#X connect 15 0 5 0;
#X connect 16 0 1 0;
#X connect 17 1 39 0;
#X connect 20 0 33 0;
#X connect 22 0 24 0;
#X connect 24 0 11 1;
#X connect 25 0 28 0;
#X connect 27 0 29 0;
#X connect 28 0 27 0;
#X connect 29 0 16 1;
#X connect 30 0 15 0;
#X connect 33 0 2 0;
#X connect 33 0 13 0;
#X connect 33 0 14 0;
