#N canvas 1147 152 736 621 12;
#X obj 252 140 sig~;
#X obj 252 165 *~;
#X obj 319 132 pdkm/dknoiz~ 0.5 0.98 1.02;
#X obj 252 190 phasor~;
#X obj 361 212 pdkm/dkadsr~ 700 4000 1 100;
#X obj 312 280 *~;
#X obj 354 173 > 10;
#X obj 257 85 t f f;
#X obj 312 305 +~;
#X obj 367 275 *~ 2;
#X obj 305 392 line~;
#X obj 231 404 *~;
#X msg 308 359 \$1 25;
#X obj 231 354 vcf~ 10;
#X text 404 392 borrowed from Morphing Saw Bass;
#X text 409 411 by ecbeckmann on sccode.org;
#X obj 231 429 outlet~;
#X obj 267 44 inlet;
#X text 504 46 gpl v 3;
#X text 20 74 inlet 1: f - freq in hz;
#X text 26 19 DKSAW1~: saw synth;
#X text 25 163 needs pdkm;
#X text 503 27 Derek Kwan 2017;
#X connect 0 0 1 0;
#X connect 0 0 5 0;
#X connect 0 0 9 0;
#X connect 1 0 3 0;
#X connect 2 0 1 1;
#X connect 3 0 13 0;
#X connect 4 0 5 1;
#X connect 5 0 8 0;
#X connect 6 0 4 0;
#X connect 6 0 12 0;
#X connect 7 0 0 0;
#X connect 7 1 6 0;
#X connect 8 0 13 1;
#X connect 9 0 8 1;
#X connect 10 0 11 1;
#X connect 11 0 16 0;
#X connect 12 0 10 0;
#X connect 13 1 11 0;
#X connect 17 0 7 0;
