#N canvas 1447 200 1048 734 12;
#X obj 24 189 phasor~ 100;
#X obj 169 419 *~ 0.33;
#X obj 16 433 *~ 0.33;
#X obj 339 397 *~ 0.33;
#X obj 16 406 vcf~ 4;
#X obj 169 394 vcf~ 4;
#X obj 339 372 vcf~ 4;
#X obj 41 347 line~;
#X obj 89 416 line~;
#X obj 16 472 *~;
#X obj 194 357 line~;
#X obj 198 465 *~;
#X obj 240 427 line~;
#X obj 349 326 line~;
#X obj 411 399 line~;
#X obj 339 422 *~;
#X obj 205 125 list split 1;
#X obj 203 155 unpack f f f f f f f f f f;
#X obj 42 304 pack f 5;
#X obj 189 327 pack f 5;
#X obj 88 385 pack f 5;
#X obj 240 395 pack f 5;
#X obj 410 361 pack f 5;
#X obj 351 288 pack f 5;
#X obj 36 129 pack f 5;
#X obj 36 154 line~;
#X text 612 55 ramptime;
#X obj 711 193 text define -k \$0-male_vowels;
#A set ee 136 270 5 0.8 2290 5 0.15 3010 5 0.04 \; ih 135 430 5 0.85
1990 5 0.2 2550 5 0.08 \; eh 130 530 5 0.9 1840 5 0.3 2480 5 0.11 \;
ae 127 660 5 0.95 1720 5 0.4 2410 5 0.15 \; aw 124 730 5 0.95 1090
5 0.6 2440 5 0.04 \; oh 129 570 5 1 840 4 0.5 2410 5 0.02 \; oe 137
440 5 0.95 1020 5 0.4 3310 5 0.02 \; oo 141 300 5 0.85 870 5 0.35 2240
5 0.01 \; uh 130 640 5 0.95 1190 5 0.5 2390 5 0.08 \; ah 133 490 5
0.7 1350 5 0.38 1690 5 0.19 \;;
#X obj 205 75 text search \$0-male_vowels;
#X obj 205 100 text get \$0-male_vowels;
#X obj 22 231 lop~ 4000;
#X text 407 529 based on measurements by peterson and barney;
#X obj 82 581 outlet~;
#X obj 260 12 inlet;
#X obj 546 68 max 3;
#X obj 548 41 f \$1;
#X obj 260 37 symbol;
#X text 322 21 vowel;
#X obj 431 11 inlet;
#X obj 612 12 loadbang;
#X text 536 253 poss vowels:;
#X text 542 286 ee ih eh ae aw oh;
#X text 542 309 oe oo uh ah;
#X text 410 503 male vowels only so far;
#X text 398 476 first attempts (needs tweaking);
#X text 723 22 derek kwan;
#X text 728 53 pdksynth;
#X text 721 85 gpl v 3 2017;
#X text 27 20 dkvowel~: vowel synthesizer;
#X connect 0 0 30 0;
#X connect 1 0 11 0;
#X connect 2 0 9 0;
#X connect 3 0 15 0;
#X connect 4 0 2 0;
#X connect 5 0 1 0;
#X connect 6 0 3 0;
#X connect 7 0 4 1;
#X connect 8 0 9 1;
#X connect 9 0 32 0;
#X connect 10 0 5 1;
#X connect 11 0 32 0;
#X connect 12 0 11 1;
#X connect 13 0 6 1;
#X connect 14 0 15 1;
#X connect 15 0 32 0;
#X connect 16 1 17 0;
#X connect 17 0 24 0;
#X connect 17 1 18 0;
#X connect 17 2 4 2;
#X connect 17 3 20 0;
#X connect 17 4 19 0;
#X connect 17 5 5 2;
#X connect 17 6 21 0;
#X connect 17 7 23 0;
#X connect 17 8 6 2;
#X connect 17 9 22 0;
#X connect 18 0 7 0;
#X connect 19 0 10 0;
#X connect 20 0 8 0;
#X connect 21 0 12 0;
#X connect 22 0 14 0;
#X connect 23 0 13 0;
#X connect 24 0 25 0;
#X connect 25 0 0 0;
#X connect 28 0 29 0;
#X connect 29 0 16 0;
#X connect 30 0 4 0;
#X connect 30 0 5 0;
#X connect 30 0 6 0;
#X connect 33 0 36 0;
#X connect 34 0 18 1;
#X connect 34 0 24 1;
#X connect 34 0 20 1;
#X connect 34 0 19 1;
#X connect 34 0 21 1;
#X connect 34 0 23 1;
#X connect 34 0 22 1;
#X connect 35 0 34 0;
#X connect 36 0 28 0;
#X connect 38 0 34 0;
#X connect 39 0 35 0;
