#N canvas 455 394 450 300 12;
#X text 18 7 PDKSYNTH;
#X text 111 7 gpl v3;
#N canvas 1 101 450 300 percussion 0;
#X text 18 33 dkbd1~ - bass drum synth;
#X text 16 47 dkbd2~ - 808ish bass drm synth;
#X text 16 94 dkclap1~ - clap synthesizer (needs dkenv~);
#X text 15 108 dkclap2~ - clap synthesizer;
#X text 19 134 dkhh1~ - hihat synth;
#X text 19 147 dkhh2~ - hihat synth;
#X text 20 166 dksd1~ - snare drum synth;
#X text 20 178 dksd2~ - snare drum synth;
#X text 20 68 dkbd3~ - bass drum synth;
#X restore 24 54 pd percussion;
#X text 231 11 Derek Kwan \, 2016;
#N canvas 749 325 716 280 pitched 0;
#X text 16 244 dkrhodes1~ - rhodes synth;
#X text 18 2 dkbrass1~ - brass synth;
#X text 16 168 dkorgan1~ organ synth;
#X text 18 19 dkdesyp1~ - DEtuned SYnth Pad;
#X text 14 102 dkklmba1~ - kalimba synth (requires dkenv~ \, dkpink~
;
#X text 230 123 dksnbnkr~ from pdkm);
#X text 16 221 dkstring1~ - first attempt at string synth;
#X text 15 82 dkemsine1~ - everything-modulated-sine;
#X text 16 191 dkpwmsq1~ - pw-modded square wave;
#X text 17 149 dksynsaw1~ saw synth (needs pdkm);
#X text 16 39 dkdesaw1~ - detuned saw synth;
#X text 16 64 dkdtmf~ - dtmf synth;
#X restore 149 60 pd pitched;
#N canvas 1 101 450 300 oscillators 0;
#X text 27 18 dkdutysaw~ - variable-duty saw;
#X text 24 41 dkdutysq~ - variable-duty square wave;
#X restore 29 96 pd oscillators;
