#N canvas 1 247 962 749 12;
#X obj 482 338 pdkm/dkdutysaw~ 440 1;
#N canvas 137 592 692 559 pdksynth-dkdesaw1-freq 0;
#X obj 132 28 inlet;
#X obj 132 232 + 1;
#X obj 83 228 f 0;
#X obj 127 315 pack f f, f 15;
#X obj 127 340 route 0 1;
#X obj 83 253 % 2;
#X obj 217 228 * 1, f 5;
#X obj 136 409 outlet;
#X obj 212 411 outlet;
#X obj 217 253 t b f;
#X obj 164 149 / 1000;
#X obj 164 124 random 31;
#X obj 192 196 + 0.99;
#X obj 160 88 t b b;
#X text 192 26 trig;
#X connect 0 0 13 0;
#X connect 1 0 2 1;
#X connect 2 0 5 0;
#X connect 3 0 4 0;
#X connect 4 0 7 0;
#X connect 4 1 8 0;
#X connect 5 0 1 0;
#X connect 5 0 3 0;
#X connect 6 0 9 0;
#X connect 9 0 2 0;
#X connect 9 1 3 1;
#X connect 10 0 12 0;
#X connect 11 0 10 0;
#X connect 12 0 6 0;
#X connect 13 0 11 0;
#X connect 13 1 11 0;
#X restore 266 222 pd pdksynth-dkdesaw1-freq;
#N canvas 394 471 692 559 pdksynth-dkdesaw1-phase 0;
#X obj 164 161 / 100;
#X obj 127 315 pack f f, f 15;
#X obj 127 340 route 0 1;
#X obj 136 409 outlet;
#X obj 212 411 outlet;
#X obj 164 124 random 101;
#X text 185 33 trigger;
#X obj 132 28 inlet;
#X obj 143 241 + 1;
#X obj 94 237 f 0;
#X obj 94 262 % 2;
#X obj 132 53 t b b;
#X obj 164 186 t b f;
#X connect 0 0 12 0;
#X connect 1 0 2 0;
#X connect 2 0 3 0;
#X connect 2 1 4 0;
#X connect 5 0 0 0;
#X connect 7 0 11 0;
#X connect 8 0 9 1;
#X connect 9 0 10 0;
#X connect 10 0 8 0;
#X connect 10 0 1 0;
#X connect 11 0 5 0;
#X connect 11 1 5 0;
#X connect 12 0 9 0;
#X connect 12 1 1 1;
#X restore 473 253 pd pdksynth-dkdesaw1-phase;
#N canvas 312 498 692 559 pdksynth-dkdesaw1-duty 0;
#X obj 122 397 pack f f, f 15;
#X obj 122 422 route 0 1;
#X text 192 26 trigger;
#X obj 191 216 log;
#X obj 132 28 inlet;
#X obj 147 335 + 1;
#X obj 98 331 f 0;
#X obj 98 356 % 2;
#X obj 132 53 t b b;
#X obj 201 294 t b f;
#X text 501 145 1.051 max;
#X text 505 176 1.005 min;
#X text 488 218 0.046 range;
#X obj 189 119 random 47;
#X obj 188 144 / 1000;
#X obj 189 181 + 1.0005;
#X text 324 257 0.005-0.05;
#X obj 212 459 sig~;
#X obj 207 493 outlet~;
#X obj 122 447 sig~;
#X obj 131 491 outlet~;
#X connect 0 0 1 0;
#X connect 1 0 19 0;
#X connect 1 1 17 0;
#X connect 3 0 9 0;
#X connect 4 0 8 0;
#X connect 5 0 6 1;
#X connect 6 0 7 0;
#X connect 7 0 5 0;
#X connect 7 0 0 0;
#X connect 8 0 13 0;
#X connect 8 1 13 0;
#X connect 9 0 6 0;
#X connect 9 1 0 1;
#X connect 13 0 14 0;
#X connect 14 0 15 0;
#X connect 15 0 3 0;
#X connect 17 0 18 0;
#X connect 19 0 20 0;
#X restore 484 165 pd pdksynth-dkdesaw1-duty;
#X obj 503 43 loadbang;
#X obj 282 44 inlet;
#X text 343 75 freq;
#X obj 276 434 +~;
#X obj 276 459 outlet~;
#X obj 210 203 f \$1;
#X text 11 32 dkdesaw1 voice;
#X text 14 106 ported from jpdarago's;
#X text 12 132 saw synth with iteration;
#X text 19 153 on github:;
#X text 15 177 https://github.com/jpdarago/supercollider-sounds;
#X text 22 276 INLET/ARG:;
#X text 24 299 freq in Hz;
#X text 786 15 derek kwan 2017;
#X text 790 35 pdksynth;
#X text 793 64 gpl v 3;
#X text 9 12 dkdesaw1-osc~;
#X obj 222 370 *~ 0.1;
#X obj 482 379 *~ 0.1;
#X text 773 117 requires dkdutysaw~;
#X text 774 139 from pdkm;
#X obj 236 268 * 1;
#X obj 478 308 * 1;
#X obj 503 68 t b b;
#X obj 222 339 pdksynth/dkdutysaw~ 440;
#X connect 0 0 22 0;
#X connect 1 0 25 1;
#X connect 1 1 26 1;
#X connect 2 0 28 2;
#X connect 2 1 0 2;
#X connect 3 0 28 1;
#X connect 3 1 0 1;
#X connect 4 0 27 0;
#X connect 5 0 9 0;
#X connect 7 0 8 0;
#X connect 9 0 25 0;
#X connect 9 0 26 0;
#X connect 21 0 7 0;
#X connect 22 0 7 1;
#X connect 25 0 28 0;
#X connect 26 0 0 0;
#X connect 27 1 2 0;
#X connect 27 1 3 0;
#X connect 27 1 1 0;
#X connect 28 0 21 0;
