#N canvas 1002 159 749 723 12;
#X text 406 101 LFO 0-1;
#X obj 53 18 inlet;
#X text 107 17 freq;
#X obj 47 204 phasor~ 1;
#X obj 270 290 outlet~;
#X text 496 61 Derek Kwan 2016;
#X text 502 89 gpl v 3;
#X text 40 549 based on "Detuned Synth Pad" by coreyker;
#X text 38 567 from sccode.org;
#X text 38 592 based on;
#X text 39 614 http://www.attackmagazine.com/technique/synth-secrets/detuned-pad/
;
#X text 325 377 inlet 1: freq;
#X text 325 401 inlet 2: detune amt;
#N canvas 248 175 721 566 phasrange 0;
#X obj 337 101 osc~ 3;
#X obj 334 65 random 4;
#X obj 337 126 +~ 1;
#X obj 337 151 *~ 0.5;
#X obj 274 90 t b f;
#X msg 274 115 1;
#X obj 274 140 /;
#X obj 245 276 *~ 1;
#X obj 274 165 i;
#X obj 274 190 t b f;
#X obj 274 215 random 1;
#X obj 340 26 loadbang;
#X obj 136 45 inlet;
#X text 184 42 freq;
#X obj 245 301 outlet~;
#X text 414 106 phaser sweeps range based on;
#X text 409 131 range of (rand) freq recip * lfo;
#X connect 0 0 2 0;
#X connect 1 0 0 0;
#X connect 2 0 3 0;
#X connect 3 0 7 0;
#X connect 4 0 5 0;
#X connect 4 1 6 1;
#X connect 5 0 6 0;
#X connect 6 0 8 0;
#X connect 7 0 14 0;
#X connect 8 0 9 0;
#X connect 9 0 10 0;
#X connect 9 1 10 1;
#X connect 10 0 7 1;
#X connect 11 0 1 0;
#X connect 12 0 4 0;
#X restore 276 216 pd phasrange;
#N canvas 1050 342 730 596 detuner 0;
#X obj 293 129 random 24;
#X obj 293 154 - 12;
#X obj 293 179 t b f;
#X msg 293 204 2;
#X obj 293 229 pow;
#X obj 335 210 / 1200;
#X text 370 41 detune +/- 12c;
#X obj 225 322 *;
#X obj 165 87 inlet;
#X text 186 133 freq;
#X obj 293 254 t b f;
#X obj 225 347 outlet;
#X text 292 347 detuned freq;
#X obj 513 28 inlet;
#X text 583 102 detune range;
#X obj 513 104 moses 0;
#X obj 314 78 t b f;
#X obj 462 197 * 2;
#X connect 0 0 1 0;
#X connect 1 0 2 0;
#X connect 2 0 3 0;
#X connect 2 1 5 0;
#X connect 3 0 4 0;
#X connect 4 0 10 0;
#X connect 5 0 4 1;
#X connect 7 0 11 0;
#X connect 8 0 7 0;
#X connect 10 0 7 0;
#X connect 10 1 7 1;
#X connect 13 0 15 0;
#X connect 15 1 16 0;
#X connect 16 0 0 0;
#X connect 16 1 17 0;
#X connect 16 1 1 1;
#X connect 17 0 0 1;
#X restore 57 71 pd detuner;
#X obj 187 15 inlet;
#X text 266 63 detune range;
#X text 329 430 arg1: detune amt;
#X obj 175 60 f \$1;
#X obj 276 20 loadbang;
#X text 419 21 dkdesyp1~ osc voice type 1;
#X obj 12 241 delwrite~ \$0-dkdesyp1-osc1 50;
#X obj 270 265 delread4~ \$0-dkdesyp1-osc1;
#X connect 1 0 13 0;
#X connect 1 0 14 0;
#X connect 3 0 21 0;
#X connect 13 0 22 0;
#X connect 14 0 3 0;
#X connect 15 0 18 0;
#X connect 18 0 14 1;
#X connect 19 0 18 0;
#X connect 22 0 4 0;
