#N canvas 240 363 997 398 12;
#X obj 378 154 mtof;
#X msg 378 204 1000;
#X obj 378 179 t b f;
#X obj 378 229 /;
#X obj 386 120 + 0;
#X obj 714 53 inlet;
#X obj 714 78 route offset;
#X obj 253 20 inlet;
#X text 168 25 freq;
#X obj 337 308 outlet~;
#X text 23 17 dkpiano1-del~;
#X text 20 346 https://raw.githubusercontent.com/supercollider-quarks/SynthDefPool/master/pool/cheappiano.scd
;
#X obj 431 15 inlet~;
#X obj 337 276 pdkm/dkcmb~ 1000 0 0.99 0.99;
#X text 505 17 hammer;
#X text 25 91 ported from supercollider's cheap piano;
#X text 25 119 from the quarks synthdefpool;
#X text 20 63 delay bank for cheap piano;
#X connect 0 0 2 0;
#X connect 1 0 3 0;
#X connect 2 0 1 0;
#X connect 2 1 3 1;
#X connect 3 0 13 1;
#X connect 4 0 0 0;
#X connect 5 0 6 0;
#X connect 6 0 4 1;
#X connect 7 0 4 0;
#X connect 12 0 13 0;
#X connect 13 0 9 0;
